<?xml version="1.0" encoding="UTF-8" standalone="no"?>
<!-- Created with Inkscape (http://www.inkscape.org/) -->

<svg
   xmlns:dc="http://purl.org/dc/elements/1.1/"
   xmlns:cc="http://creativecommons.org/ns#"
   xmlns:rdf="http://www.w3.org/1999/02/22-rdf-syntax-ns#"
   xmlns:svg="http://www.w3.org/2000/svg"
   xmlns="http://www.w3.org/2000/svg"
   xmlns:sodipodi="http://sodipodi.sourceforge.net/DTD/sodipodi-0.dtd"
   xmlns:inkscape="http://www.inkscape.org/namespaces/inkscape"
   id="svg3703"
   version="1.1"
   inkscape:version="0.91 r13725"
   xml:space="preserve"
   width="1652.7999"
   height="223.93542"
   viewBox="0 0 1652.7999 223.93543"
   sodipodi:docname="sd_lockup_logo.svg"><metadata
     id="metadata3709"><rdf:RDF><cc:Work
         rdf:about=""><dc:format>image/svg+xml</dc:format><dc:type
           rdf:resource="http://purl.org/dc/dcmitype/StillImage" /><dc:title></dc:title></cc:Work></rdf:RDF></metadata><defs
     id="defs3707" /><sodipodi:namedview
     pagecolor="#ffffff"
     bordercolor="#666666"
     borderopacity="1"
     objecttolerance="10"
     gridtolerance="10"
     guidetolerance="10"
     inkscape:pageopacity="0"
     inkscape:pageshadow="2"
     inkscape:window-width="640"
     inkscape:window-height="480"
     id="namedview3705"
     showgrid="false"
     fit-margin-top="0"
     fit-margin-left="0"
     fit-margin-right="0"
     fit-margin-bottom="0"
     inkscape:zoom="0.17779393"
     inkscape:cx="826.74177"
     inkscape:cy="113.00708"
     inkscape:window-x="125"
     inkscape:window-y="95"
     inkscape:window-maximized="0"
     inkscape:current-layer="g3711" /><g
     id="g3711"
     inkscape:groupmode="layer"
     inkscape:label="ink_ext_XXXXXX"
     transform="matrix(1.25,0,0,-1.25,-205.35198,426.95335)"><g
       id="g3713"
       transform="scale(0.112611,0.112611)"><path
         d="m 11702.5,2157.53 100,320.92 -208.7,160.44 -540,-529.25 580.3,0 68,46.42 0.4,1.47"
         style="fill:#6a90a3;fill-opacity:1;fill-rule:nonzero;stroke:none"
         id="path3715"
         inkscape:connector-curvature="0" /><path
         d="m 12371.9,2638.89 -208.7,-160.44 100.3,-322.3 68.1,-46.51 580.3,0 -540,529.25"
         style="fill:#6a90a3;fill-opacity:1;fill-rule:nonzero;stroke:none"
         id="path3717"
         inkscape:connector-curvature="0" /><path
         d="m 12274.6,2821.2 -220.2,0.53 -71.5,211.39 -71.5,-211.39 -220.2,-0.53 176.1,-135.4 -64.8,-207.57 180.4,123.52 180.2,-123.52 -64.6,207.57 176.1,135.4"
         style="fill:#33b440;fill-opacity:1;fill-rule:nonzero;stroke:none"
         id="path3719"
         inkscape:connector-curvature="0" /><path
         d="m 11983.6,2347.34 -0.7,0.52 -348.8,-238.22 697.5,0 -348,237.7"
         style="fill:#33b440;fill-opacity:1;fill-rule:nonzero;stroke:none"
         id="path3721"
         inkscape:connector-curvature="0" /><path
         d="m 10837.6,1848.14 0,33.7 56.9,0 0,73.04 42.1,18.25 0,-91.29 71.7,0 0,-33.7 -71.7,0 0,-227.51 c 0,-47.05 5,-58.31 38.6,-58.31 14.1,0 23.9,0.7 33.1,2.11 l 0,-36.51 c -12.6,-1.41 -26.7,-2.12 -40.1,-2.12 -56.8,0 -73.7,25.29 -73.7,68.84 l 0,253.5 -56.9,0"
         style="fill:#6a90a3;fill-opacity:1;fill-rule:nonzero;stroke:none"
         id="path3723"
         inkscape:connector-curvature="0" /><path
         d="m 11257.5,1729.45 c 0,78.64 -12.6,125.72 -80,125.72 -67.4,0 -80,-47.08 -80,-125.72 l 160,0 z m -160,-33.7 0,-27.37 c 0,-49.17 13.3,-114.47 80,-114.47 52.7,0 78.7,33.69 78,81.45 l 44.2,0 c -4.9,-85.68 -51.2,-115.18 -122.2,-115.18 -61.1,0 -122.2,24.59 -122.2,132.02 l 0,87.09 c 0,102.53 42.9,149.58 122.2,149.58 122.2,0 122.2,-87.77 122.2,-193.12 l -202.2,0"
         style="fill:#6a90a3;fill-opacity:1;fill-rule:nonzero;stroke:none"
         id="path3725"
         inkscape:connector-curvature="0" /><path
         d="m 11534.3,1780.02 c 2.1,44.25 -14.1,75.15 -62.5,75.15 -26,0 -47.8,-14.76 -56.9,-40.75 -5.6,-16.15 -9.8,-64.6 -9.8,-111.64 0,-63.9 0,-148.87 65.3,-148.87 55.5,0 62.5,35.11 64.6,77.95 l 42.1,0 c 3.5,-95.5 -63.9,-111.68 -96.8,-111.68 -120.2,0 -120.2,94.83 -120.2,182.6 0,35.1 1.4,90.58 10.6,117.25 18.3,50.57 58.2,68.84 106.7,68.84 61.1,0 102.6,-34.4 99,-108.85 l -42.1,0"
         style="fill:#6a90a3;fill-opacity:1;fill-rule:nonzero;stroke:none"
         id="path3727"
         inkscape:connector-curvature="0" /><path
         d="m 11649.5,1527.22 0,507.02 42.1,0 0,-195.94 1.4,0 c 20.4,29.49 47.8,50.57 85.7,50.57 87.7,0 96.9,-65.3 96.9,-111.65 l 0,-250 -42.1,0 0,247.89 c 0,41.42 -16.2,80.06 -65.4,80.06 -37.9,0 -76.5,-25.99 -76.5,-105.35 l 0,-222.6 -42.1,0"
         style="fill:#6a90a3;fill-opacity:1;fill-rule:nonzero;stroke:none"
         id="path3729"
         inkscape:connector-curvature="0" /><path
         d="m 12055.4,1520.18 c -76.5,0 -106.7,37.23 -106,112.38 l 42.8,0 c 0,-48.46 11.3,-80.76 65.4,-80.76 40.6,0 60.3,23.16 60.3,62.5 0,92.68 -159.5,68.81 -159.5,186.1 0,65.29 45.1,88.47 106.8,88.47 70.2,0 92.7,-48.46 92.7,-102.53 l -41.4,0 c -2.1,44.95 -14,68.83 -61.8,68.83 -30.2,0 -54.1,-19.67 -54.1,-51.28 0,-88.47 159.4,-64.6 159.4,-183.26 0,-66.72 -38.6,-100.45 -104.6,-100.45"
         style="fill:#6a90a3;fill-opacity:1;fill-rule:nonzero;stroke:none"
         id="path3731"
         inkscape:connector-curvature="0" /><path
         d="m 12202.9,1848.14 0,33.7 56.9,0 0,73.04 42.1,18.25 0,-91.29 71.6,0 0,-33.7 -71.6,0 0,-227.51 c 0,-47.05 4.9,-58.31 38.7,-58.31 14,0 23.8,0.7 32.9,2.11 l 0,-36.51 c -12.6,-1.41 -26.6,-2.12 -40,-2.12 -56.9,0 -73.7,25.29 -73.7,68.84 l 0,253.5 -56.9,0"
         style="fill:#6a90a3;fill-opacity:1;fill-rule:nonzero;stroke:none"
         id="path3733"
         inkscape:connector-curvature="0" /><path
         d="m 12610.2,1708.39 c -60.4,-2.11 -151.6,4.91 -151.6,-81.44 0,-40.05 20.3,-73.04 63.8,-73.04 48.5,0 87.8,43.55 87.8,89.89 l 0,64.59 z m 2.8,-137.63 -1.4,0 c -22.5,-33.69 -56.8,-50.58 -100.4,-50.58 -63.2,0 -97.6,42.84 -97.6,104.65 0,124.28 125,111.64 196.6,117.26 l 0,29.49 c 0,51.99 -15.4,83.59 -71.6,83.59 -38.6,0 -69.5,-18.96 -69.5,-61.1 l -45,0 c 3.6,68.1 56.2,94.8 118,94.8 35.8,0 110.2,-3.53 110.2,-94.09 l 0,-178.39 c 0,-25.25 0,-47.75 4.3,-89.17 l -43.6,0 0,43.54"
         style="fill:#6a90a3;fill-opacity:1;fill-rule:nonzero;stroke:none"
         id="path3735"
         inkscape:connector-curvature="0" /><path
         d="m 12779.5,1834.09 1.3,0 c 17.6,33.7 54.8,54.78 97.7,54.78 l 0,-42.85 c -59.7,4.91 -99,-30.89 -99,-90.58 l 0,-228.22 -42.2,0 0,354.62 42.2,0 0,-47.75"
         style="fill:#6a90a3;fill-opacity:1;fill-rule:nonzero;stroke:none"
         id="path3737"
         inkscape:connector-curvature="0" /><path
         d="m 13020.3,1520.18 c -76.5,0 -106.7,37.23 -106,112.38 l 42.9,0 c 0,-48.46 11.2,-80.76 65.3,-80.76 40.7,0 60.4,23.16 60.4,62.5 0,92.68 -159.4,68.81 -159.4,186.1 0,65.29 44.9,88.47 106.7,88.47 70.2,0 92.7,-48.46 92.7,-102.53 l -41.5,0 c -2,44.95 -14,68.83 -61.8,68.83 -30.2,0 -54.1,-19.67 -54.1,-51.28 0,-88.47 159.5,-64.6 159.5,-183.26 0,-66.72 -38.6,-100.45 -104.7,-100.45"
         style="fill:#6a90a3;fill-opacity:1;fill-rule:nonzero;stroke:none"
         id="path3739"
         inkscape:connector-curvature="0" /><path
         d="m 13156.7,1890.57 8,0 c 2.5,0.07 4.5,0.65 6,1.78 1.5,1.12 2.2,2.6 2.2,4.42 0,2.48 -0.6,4.23 -2,5.27 -1.3,1.03 -3.7,1.55 -7.1,1.55 l -7.1,0 0,-13.02 z m 0,-6.54 0,-17.26 -7.2,0 0,43.36 14.2,0 c 5.2,0 9.2,-1.11 12.1,-3.35 2.9,-2.23 4.3,-5.47 4.3,-9.72 0,-4.19 -2.1,-7.4 -6.5,-9.61 4.1,-1.7 6.2,-5.17 6.2,-10.42 l 0,-3.12 c 0,-2.93 0.4,-5.04 0.9,-6.33 l 0,-0.81 -7.4,0 c -0.5,1.22 -0.7,3.42 -0.7,6.56 0,3.14 -0.1,5.02 -0.1,5.6 -0.6,3.26 -2.8,4.97 -6.7,5.1 l -9.1,0 z m -22.8,3.85 c 0,-5.85 1.3,-11.27 4.1,-16.25 2.7,-4.98 6.4,-8.88 11.1,-11.71 4.6,-2.82 9.7,-4.24 15.2,-4.24 5.5,0 10.6,1.43 15.3,4.31 4.7,2.88 8.3,6.79 11,11.71 2.6,4.94 4,10.33 4,16.18 0,5.82 -1.4,11.19 -4,16.1 -2.7,4.92 -6.3,8.79 -11,11.65 -4.7,2.84 -9.8,4.26 -15.3,4.26 -5.5,0 -10.6,-1.41 -15.3,-4.21 -4.6,-2.82 -8.3,-6.7 -11.1,-11.67 -2.7,-4.96 -4,-10.33 -4,-16.13 z m -5.8,-0.01 c 0,6.87 1.5,13.26 4.7,19.14 3.2,5.89 7.6,10.53 13.2,13.92 5.7,3.38 11.7,5.09 18.3,5.09 6.5,0 12.6,-1.71 18.2,-5.09 5.6,-3.39 10,-8.03 13.2,-13.92 3.2,-5.88 4.8,-12.27 4.8,-19.14 0,-6.72 -1.6,-13 -4.6,-18.86 -3.1,-5.86 -7.5,-10.55 -13.1,-14.12 -5.6,-3.56 -11.8,-5.33 -18.5,-5.33 -6.8,0 -12.9,1.76 -18.6,5.28 -5.6,3.53 -9.9,8.21 -13,14.07 -3.1,5.86 -4.6,12.18 -4.6,18.96"
         style="fill:#6a90a3;fill-opacity:1;fill-rule:nonzero;stroke:none"
         id="path3741"
         inkscape:connector-curvature="0" /><path
         d="m 10373.8,1442.26 10.215,0 0,1334.11 -10.215,0 0,-1334.11 z"
         style="fill:#29333d;fill-opacity:1;fill-rule:nonzero;stroke:none"
         id="path3743"
         inkscape:connector-curvature="0" /><path
         d="m 9829.96,2308.39 0,-22.97 -31.96,0 0,-83.69 -27.8,0 0,83.69 -31.7,0 0,22.97 91.46,0"
         style="fill:#29333d;fill-opacity:1;fill-rule:nonzero;stroke:none"
         id="path3745"
         inkscape:connector-curvature="0" /><path
         d="m 9868.68,2308.39 28.24,-62.24 28.33,62.24 30.46,0 0,-106.66 -24.69,0 -0.18,67.57 -24.77,-56.92 -18.29,0 -24.78,56.92 0,-67.57 -24.77,0 0,106.66 30.45,0"
         style="fill:#29333d;fill-opacity:1;fill-rule:nonzero;stroke:none"
         id="path3747"
         inkscape:connector-curvature="0" /><path
         d="m 4292.22,1969.45 0,49.59 -111.86,0 c -52.77,0 -79.15,-18.99 -79.15,-59.09 0,-39.05 28.49,-64.38 77.03,-64.38 55.93,0 102.37,30.61 113.98,73.88 z m 184.67,178.35 0,-371.48 -184.67,0 0,64.38 c -36.93,-47.49 -94.98,-72.81 -172.01,-72.81 -122.42,0 -195.24,73.86 -195.24,178.34 0,108.69 77.04,170.97 218.45,173.07 l 148.8,0 0,6.33 c 0,53.82 -36.93,85.48 -108.7,85.48 -47.49,0 -109.75,-15.83 -170.97,-45.38 l -51.7,126.65 c 89.7,40.09 172.03,62.25 265.94,62.25 157.23,0 249.04,-75.97 250.1,-206.83"
         style="fill:#29333d;fill-opacity:1;fill-rule:nonzero;stroke:none"
         id="path3749"
         inkscape:connector-curvature="0" /><path
         d="m 5288.08,1800.11 c -41.15,-24.29 -98.14,-38 -154.06,-38 -110.81,-1.06 -191.01,64.37 -191.01,182.56 l 0,526.2 186.78,0 0,-156.83 147.75,0 0,-134.86 -147.75,0 0,-204.95 c 0,-42.22 18.99,-61.21 51.71,-60.16 19.01,0 43.28,7.39 70.71,19 l 35.87,-132.96"
         style="fill:#29333d;fill-opacity:1;fill-rule:nonzero;stroke:none"
         id="path3751"
         inkscape:connector-curvature="0" /><path
         d="m 9689.3,1794.39 c -41.2,-24.27 -98.12,-38 -154.07,-38 -110.82,-1.05 -191.01,64.39 -191.01,182.57 l 0,526.2 186.75,0 0,-156.84 147.77,0 0,-134.85 -147.77,0 0,-204.95 c 0,-42.22 19.01,-61.22 51.77,-60.16 19.01,0 43.25,7.39 70.69,19 l 35.87,-132.97"
         style="fill:#29333d;fill-opacity:1;fill-rule:nonzero;stroke:none"
         id="path3753"
         inkscape:connector-curvature="0" /><path
         d="m 4898.09,2347.95 0,-172.02 c -104.46,10.56 -174.12,-35.88 -183.61,-115.02 l 0,-291.27 -187.84,0 0,570.92 187.84,0 0,-94.97 c 39.04,65.43 103.42,102.36 183.61,102.36"
         style="fill:#29333d;fill-opacity:1;fill-rule:nonzero;stroke:none"
         id="path3755"
         inkscape:connector-curvature="0" /><path
         d="m 5895.25,2328.63 0,-570.91 -187.85,0 0,92.87 c -39.04,-66.49 -101.3,-100.26 -182.56,-101.32 -123.47,0 -203.67,85.49 -203.67,218.46 l 0,360.9 187.84,0 0,-307.08 c 0,-64.38 35.87,-103.43 91.81,-103.43 66.48,1.06 106.58,53.83 106.58,128.76 l 0,281.75 187.85,0"
         style="fill:#29333d;fill-opacity:1;fill-rule:nonzero;stroke:none"
         id="path3757"
         inkscape:connector-curvature="0" /><path
         d="m 3565.59,2314.04 0,156.83 186.79,0 0,-156.83 147.74,0 0,-136.02 -147.74,0 0,-203.79 c 0,-42.22 18.98,-61.21 51.71,-60.16 19,0 43.26,7.39 70.7,19 l 35.87,-132.96 c -41.15,-24.29 -98.14,-38 -154.05,-38 -110.81,-1.06 -191.02,64.37 -191.02,182.56 l 0,233.35"
         style="fill:#29333d;fill-opacity:1;fill-rule:nonzero;stroke:none"
         id="path3759"
         inkscape:connector-curvature="0" /><path
         d="m 6380.5,2042.57 c 0,84.42 -49.59,142.46 -123.47,142.46 -71.75,0 -121.35,-58.04 -121.35,-142.46 0,-84.43 49.6,-141.42 121.35,-141.42 73.88,0 123.47,56.99 123.47,141.42 z m 188.9,-4.23 c 0,-174.12 -103.41,-289.14 -261.7,-289.14 -72.82,0 -131.92,28.48 -172.02,80.19 l 0,-278.6 -187.85,0 0,775.65 187.85,0 0,-73.87 c 40.1,51.71 97.08,80.2 167.79,80.2 159.35,0 265.93,-117.14 265.93,-294.43"
         style="fill:#29333d;fill-opacity:1;fill-rule:nonzero;stroke:none"
         id="path3761"
         inkscape:connector-curvature="0" /><path
         d="m 3019.8,1854.88 75.79,122.77 c 66.2,-43.77 138.79,-66.19 198.58,-66.19 35.24,0 51.25,10.67 51.25,30.97 l 0,2.13 c 0,22.42 -32.03,32.03 -92.88,49.11 -114.24,29.89 -204.99,68.33 -204.99,184.69 l 0,2.14 c 0,122.77 98.22,191.1 231.68,191.1 84.34,0 171.88,-24.55 238.07,-67.26 l -69.4,-128.11 c -59.78,33.1 -124.9,53.38 -170.81,53.38 -30.96,0 -46.97,-11.74 -46.97,-27.76 l 0,-2.13 c 0,-22.42 33.09,-33.1 93.95,-51.25 114.23,-32.03 204.98,-71.53 204.98,-183.63 l 0,-2.13 c 0,-127.05 -95.02,-193.24 -235.94,-193.24 -97.15,0 -193.25,27.76 -273.31,85.41"
         style="fill:#29333d;fill-opacity:1;fill-rule:nonzero;stroke:none"
         id="path3763"
         inkscape:connector-curvature="0" /><path
         d="m 7010.02,1951.71 c 22.88,26.81 34.32,61.68 34.32,104.56 0,43.6 -11.44,78.63 -34.32,105.09 -22.87,26.43 -52.91,39.68 -90.07,39.68 -37.19,0 -67.39,-13.41 -90.6,-40.22 -23.25,-26.8 -34.85,-61.66 -34.85,-104.55 0,-42.88 11.6,-77.75 34.85,-104.56 23.21,-26.8 53.41,-40.21 90.6,-40.21 37.16,0 67.2,13.41 90.07,40.21 z m 225.19,612.84 0,-795.65 -190.87,0 0,75.05 c -20.03,-27.17 -44.5,-47.71 -73.45,-61.64 -28.95,-13.94 -61.66,-20.92 -98.11,-20.92 -53.62,0 -100.81,12.51 -141.55,37.54 -40.76,25 -72.38,60.2 -94.9,105.61 -22.52,45.39 -33.78,97.75 -33.78,157.09 0,58.61 11.08,110.09 33.25,154.42 22.15,44.3 53.24,78.63 93.29,102.93 40.02,24.3 86.48,36.46 139.38,36.46 37.17,0 70.6,-7.15 100.28,-21.44 29.64,-14.31 54.85,-34.69 75.59,-61.12 l 0,291.67 190.87,0"
         style="fill:#29333d;fill-opacity:1;fill-rule:nonzero;stroke:none"
         id="path3765"
         inkscape:connector-curvature="0" /><path
         d="m 7295.88,2349.01 189.79,0 0,-580.11 -189.79,0 0,580.11 z m 165.67,238.6 c 18.93,-18.97 28.41,-43.44 28.41,-73.47 0,-29.32 -9.48,-53.62 -28.41,-72.92 -18.96,-19.29 -43.08,-28.95 -72.38,-28.95 -29.32,0 -53.45,9.66 -72.38,28.95 -18.94,19.3 -28.42,43.6 -28.42,72.92 0,30.03 9.48,54.5 28.42,73.47 18.93,18.92 43.06,28.39 72.38,28.39 29.3,0 53.42,-9.47 72.38,-28.39"
         style="fill:#29333d;fill-opacity:1;fill-rule:nonzero;stroke:none"
         id="path3767"
         inkscape:connector-curvature="0" /><path
         d="m 7911.54,1977.99 c 21.45,25.03 32.18,57.55 32.18,97.58 0,40.75 -10.73,73.63 -32.18,98.66 -21.43,25 -49.68,37.52 -84.7,37.52 -35.04,0 -63.44,-12.7 -85.25,-38.07 -21.82,-25.37 -32.71,-58.07 -32.71,-98.11 0,-40.03 10.89,-72.55 32.71,-97.58 21.81,-25.03 50.21,-37.52 85.25,-37.52 35.02,0 63.27,12.49 84.7,37.52 z m 221.97,371.02 0,-528.64 c 0,-53.61 -13.22,-100.6 -39.67,-141.01 -26.46,-40.37 -63.45,-71.47 -110.99,-93.28 -47.54,-21.81 -102.4,-32.72 -164.58,-32.72 -48.64,0 -95.44,6.82 -140.48,20.38 -45.03,13.6 -84.7,31.82 -119.03,54.69 l 66.5,131.9 c 26.44,-17.87 55.03,-31.8 85.78,-41.83 30.73,-10 61.82,-15 93.28,-15 42.9,0 76.84,10.01 101.86,30.02 25.02,20.01 37.54,47.17 37.54,81.48 l 0,62.21 c -38.61,-50.78 -93.66,-76.14 -165.13,-76.14 -47.91,0 -90.62,11.62 -128.14,34.85 -37.54,23.21 -66.86,56.11 -87.93,98.65 -21.09,42.52 -31.64,91.32 -31.64,146.37 0,54.32 10.2,102.22 30.57,143.69 20.37,41.44 49.15,73.62 86.31,96.49 37.16,22.88 79.36,34.32 126.54,34.32 35.74,0 68.09,-6.6 97.04,-19.84 28.95,-13.24 53.08,-32.35 72.38,-57.36 l 0,70.77 189.79,0"
         style="fill:#29333d;fill-opacity:1;fill-rule:nonzero;stroke:none"
         id="path3769"
         inkscape:connector-curvature="0" /><path
         d="m 8592.25,2104.18 c 0,33.59 -9.85,60.59 -29.48,80.95 -19.68,20.38 -45.58,30.57 -77.75,30.57 -30.03,0 -55.23,-10.03 -75.61,-30.02 -20.36,-20.02 -33.76,-47.19 -40.21,-81.5 l 223.05,0 z m 109.37,161.92 c 50.75,-55.75 76.14,-132.26 76.14,-229.47 0,-15.01 -0.37,-26.46 -1.08,-34.32 l -403.17,0 c 9.28,-32.89 25.35,-58.09 48.24,-75.6 22.86,-17.51 50.75,-26.26 83.64,-26.26 25.01,0 49.15,5 72.38,15.01 23.23,10 44.51,24.66 63.81,43.95 l 99.72,-99.72 c -30.03,-33.6 -66.33,-59.15 -108.84,-76.66 -42.55,-17.51 -90.6,-26.26 -144.22,-26.26 -62.2,0 -116.54,12.14 -163.01,36.45 -46.46,24.3 -82.01,58.61 -106.67,102.93 -24.67,44.32 -37.01,95.79 -37.01,154.42 0,59.33 12.51,111.68 37.54,157.09 25.02,45.38 60.39,80.42 106.14,105.08 45.77,24.67 98.66,36.99 158.71,36.99 94.37,0 166.92,-27.87 217.68,-83.63"
         style="fill:#29333d;fill-opacity:1;fill-rule:nonzero;stroke:none"
         id="path3771"
         inkscape:connector-curvature="0" /><path
         d="m 9039.55,2218.92 c -16.43,0 -29.66,-3.05 -39.7,-9.12 -10.03,-6.08 -15.01,-15.19 -15.01,-27.34 0,-12.87 7.82,-23.25 23.62,-31.09 15.72,-7.88 40.76,-16.47 75.04,-25.74 41.47,-12.17 75.93,-24.13 103.46,-35.92 27.52,-11.81 51.32,-29.67 71.3,-53.62 19.98,-23.96 30.02,-55.22 30.02,-93.82 0,-58.62 -22.65,-104.55 -68.11,-137.79 -45.38,-33.25 -104.52,-49.86 -177.43,-49.86 -49.28,0 -96.53,6.96 -141.55,20.9 -45.02,13.94 -85.05,34.48 -120.07,61.67 l 60.03,123.31 c 32.89,-22.89 67.41,-40.59 103.47,-53.09 36.14,-12.52 70.24,-18.75 102.38,-18.75 18.65,0 33.48,3.02 44.49,9.1 11.1,6.07 16.7,14.84 16.7,26.28 0,14.28 -8.08,25.37 -24.15,33.23 -16.08,7.86 -41.3,16.45 -75.58,25.75 -40.76,12.14 -74.41,24.12 -100.78,35.92 -26.47,11.79 -49.55,29.48 -69.2,53.06 -19.67,23.61 -29.48,54.33 -29.48,92.23 0,58.61 22.14,104.55 66.47,137.78 44.28,33.26 101.47,49.86 171.53,49.86 42.18,0 83.83,-5.72 124.95,-17.16 41.11,-11.43 79.92,-28.23 116.33,-50.39 l -64.3,-124.38 c -75.03,39.31 -136.57,58.98 -184.43,58.98"
         style="fill:#29333d;fill-opacity:1;fill-rule:nonzero;stroke:none"
         id="path3773"
         inkscape:connector-curvature="0" /><path
         d="m 2559.58,2577.44 c -4.14,-1.4 -8.45,-5.99 -9.59,-10.22 l -2.37,-8.83 c -1.13,-4.22 -5.05,-9.64 -8.7,-12.05 l -1.58,-1.04 c -3.65,-2.41 -8.37,-7.5 -10.48,-11.32 l -12.73,-22.91 c -2.12,-3.82 -2.49,-10.24 -0.83,-14.28 l 6.02,-14.55 c 1.66,-4.04 6.34,-8.69 10.39,-10.35 l 37.71,-15.46 c 4.05,-1.66 9.4,-0.08 11.9,3.5 l 8.32,11.95 c 2.5,3.58 2.16,8.76 -0.76,11.51 -2.92,2.75 -4.48,8.48 -3.48,12.73 l 12.32,51.92 c -11.08,10.46 -22.61,20.45 -34.56,29.93 l -1.58,-0.53"
         style="fill:#50aae3;fill-opacity:1;fill-rule:nonzero;stroke:none"
         id="path3775"
         inkscape:connector-curvature="0" /><path
         d="m 2695.68,2418.46 c -1.63,-0.82 -3.18,-1.72 -4.35,-2.71 l -1.19,-0.99 c -3.34,-2.81 -9.19,-6.88 -12.97,-9.06 l -2.03,-1.17 c -3.8,-2.18 -7.46,-5.83 -8.18,-8.12 -0.69,-2.28 -0.96,-6.79 -0.59,-10.01 0.37,-3.22 0.63,-9.42 0.59,-13.79 l -0.1,-8.25 c -0.06,-4.38 -3.54,-8.88 -7.76,-10.02 l -17.57,-4.72 c -4.23,-1.14 -9.74,-4.99 -12.27,-8.55 l -19.93,-28.12 c -2.53,-3.57 -6.77,-9.32 -9.42,-12.8 l -10.92,-14.28 c -2.66,-3.49 -3.31,-9.56 -1.46,-13.52 l 5.29,-11.26 c 1.84,-3.96 1.2,-9.06 -1.44,-11.35 -2.65,-2.28 -6.15,-4.01 -7.78,-3.85 -1.64,0.18 -4.73,3.41 -6.89,7.21 -2.16,3.79 -6.7,8.8 -10.09,11.13 -3.39,2.33 -9.75,4.21 -14.12,4.18 l -10.91,-0.05 c -4.37,-0.03 -10.98,-1.95 -14.68,-4.28 l -26.07,-16.37 c -3.69,-2.32 -6.07,-7.74 -5.28,-12.03 l 1.81,-9.8 c 0.8,-4.3 4.14,-10.17 7.43,-13.04 l 0.4,-0.35 c 3.3,-2.88 9.28,-4.85 13.28,-4.4 4.02,0.46 8.32,1.68 9.58,2.71 1.25,1.03 2.67,4.02 3.13,6.66 0.46,2.63 4.32,5.57 8.58,6.53 l 1.16,0.26 c 4.26,0.96 8.31,-0.13 9,-2.42 0.69,-2.28 -0.8,-7.08 -3.32,-10.65 l -1.7,-2.42 c -2.52,-3.58 -4.85,-7.81 -5.19,-9.41 -0.34,-1.6 2.52,-4.6 6.38,-6.67 l 14.32,-7.69 c 3.86,-2.06 8.03,-6.33 9.29,-9.49 1.26,-3.15 5.67,-5.69 9.79,-5.64 4.13,0.05 10.03,-0.29 13.12,-0.76 3.1,-0.47 7.78,-0.72 10.42,-0.55 2.64,0.17 8.36,0.19 12.73,0.04 l 17.78,-0.55 c 4.36,-0.15 11.48,-0.72 15.81,-1.28 l 18.18,-2.36 c 4.34,-0.56 10.76,-3.15 14.26,-5.74 l 1.69,-1.25 c 3.51,-2.6 8.75,-6.57 11.63,-8.82 2.88,-2.25 8.63,-5.25 12.76,-6.66 l 16.58,-5.66 c 4.13,-1.42 8.92,-5.86 10.64,-9.88 l 3.84,-8.96 c 1.72,-4.02 6.52,-8.43 10.67,-9.79 l 6.04,-1.99 c 2.45,20.52 3.75,41.4 3.75,62.58 0,90.66 -23.1,175.91 -63.72,250.23"
         style="fill:#50aae3;fill-opacity:1;fill-rule:nonzero;stroke:none"
         id="path3777"
         inkscape:connector-curvature="0" /><path
         d="m 1825.4,2490.47 222.05,101.03 c 1.38,0.64 3.07,1.34 4.77,1.94 8.17,2.93 24.1,7.94 38.64,8.53 1.5,0.07 3.1,0.1 4.68,0.1 20.59,0 39.84,-5.48 56.53,-14.94 0.13,1.8 0.02,3.59 -0.62,5.12 l -3.97,9.41 c -1.7,4.03 -0.6,9.9 2.42,13.05 l 3.84,3.97 c 3.03,3.15 8.58,7.54 12.34,9.78 l 19.58,11.63 c 3.77,2.23 10.28,3.06 14.47,1.84 l 58.26,-16.84 c 4.2,-1.22 11.19,-2.55 15.54,-2.96 l 25.8,-2.44 c 4.36,-0.41 11.49,-0.76 15.86,-0.78 l 40.65,-0.14 c 4.37,-0.02 10.92,-2 14.56,-4.42 l 20.44,-13.58 c 3.64,-2.42 10.11,-3.64 14.38,-2.73 l 27.66,5.94 c 4.27,0.91 11.1,0.38 15.18,-1.18 l 17.54,-6.75 c 4.07,-1.57 10.43,-0.93 14.12,1.41 l 17.7,11.25 c 3.67,2.34 10.23,3.93 14.59,3.56 -80.02,49.77 -174.44,78.54 -275.59,78.54 -167.03,0 -315.75,-78.37 -411.42,-200.34"
         style="fill:#50aae3;fill-opacity:1;fill-rule:nonzero;stroke:none"
         id="path3779"
         inkscape:connector-curvature="0" /><path
         d="m 1671.55,1986.32 c -6.89,9.28 -11.59,20.34 -13.14,32.48 l -0.11,0.99 -8.37,82.59 -33.97,9.93 c 5.2,-55.56 17.68,-109.04 36.5,-159.47 1.63,3 3.26,5.96 4.87,8.86 4.85,8.62 9.58,16.82 14.22,24.62"
         style="fill:#50aae3;fill-opacity:1;fill-rule:nonzero;stroke:none"
         id="path3781"
         inkscape:connector-curvature="0" /><path
         d="m 2778.07,2630.52 c 38,0 68.8,30.81 68.8,68.8 0,37.99 -30.8,68.81 -68.8,68.81 -38,0 -68.81,-30.82 -68.81,-68.81 0,-37.99 30.81,-68.8 68.81,-68.8"
         style="fill:#50aae3;fill-opacity:1;fill-rule:nonzero;stroke:none"
         id="path3783"
         inkscape:connector-curvature="0" /><path
         d="m 2880.24,2567.91 c -20.72,0 -37.5,-16.78 -37.5,-37.5 0,-20.7 16.78,-37.5 37.5,-37.5 20.71,0 37.5,16.8 37.5,37.5 0,20.72 -16.79,37.5 -37.5,37.5"
         style="fill:#50aae3;fill-opacity:1;fill-rule:nonzero;stroke:none"
         id="path3785"
         inkscape:connector-curvature="0" /><path
         d="m 1979.73,1763.66 3.99,12.33 c 1.76,5.46 7.68,8.56 13.17,6.89 l 27.91,-8.71 c 5.49,-1.66 9.17,-7.71 9.17,-13.45 l 0,-3.48 c 0,-5.73 -3.63,-11.93 -9.07,-13.76 l -15.19,-5.27 c -5.42,-1.84 -13.55,-0.94 -18.26,1.98 -4.73,2.93 -9.96,7.17 -11.75,9.44 -1.79,2.26 -1.74,8.58 0.03,14.03 z m -219.49,189.9 c 54.21,-120.15 152.52,-216.09 274.29,-267.27 l 46.92,62.69 c 2.93,3.93 9.33,6.96 14.23,6.76 l 48.14,-2.03 c 4.89,-0.2 10.71,3.2 12.93,7.57 l 27.79,54.71 c 2.21,4.36 8.03,7.8 12.92,7.63 l 42.05,-1.42 c 4.89,-0.17 11.73,-3.15 15.19,-6.61 l 37.18,-37.2 c 3.46,-3.46 6.15,-10.3 5.98,-15.19 l -1.77,-52.41 c -0.16,-4.9 -2.91,-11.95 -6.09,-15.66 l -42.29,-49.35 c 143.54,2.93 272.84,63.73 365.57,160.02 -1.16,3.3 -1.87,7.03 -1.68,9.87 l 5.05,73.77 c 0.3,4.35 1.91,11.22 3.58,15.26 l 6.82,16.47 c 1.67,4.03 2.81,10.72 2.53,14.87 -0.28,4.15 -0.16,11.1 0.28,15.44 l 5.27,51.68 c 0.44,4.34 -1.87,10.26 -5.16,13.16 l -17.86,15.73 c -3.28,2.9 -7.63,8.42 -9.67,12.29 l -12.98,24.66 c -2.04,3.87 -4.73,8.53 -5.99,10.35 -1.25,1.83 -1.93,6.87 -1.52,11.22 l 0.13,1.39 c 0.41,4.35 2.03,11.25 3.59,15.33 l 11.56,30.08 c 1.57,4.08 -0.53,8.57 -4.66,9.99 l -6.31,2.16 c -4.13,1.42 -11.01,3.33 -15.28,4.25 l -6,1.27 c -4.27,0.92 -10.1,4.33 -12.97,7.58 -2.86,3.25 -8.67,6.73 -12.93,7.73 l -6.81,1.62 c -4.25,1 -11.17,2.8 -15.38,3.99 l -9.59,2.7 c -4.2,1.18 -10.86,3.73 -14.78,5.64 l -35.68,17.46 c -3.93,1.92 -6.61,6.98 -5.97,11.25 0.65,4.28 -0.82,10.74 -3.24,14.37 l -19.89,29.78 c -2.42,3.64 -5.86,9.88 -7.64,13.87 l -1.11,2.48 c -1.79,3.99 -6.17,8.57 -8.85,10.17 -2.67,1.6 -6.12,-0.66 -6.12,-5.02 l 0,-0.05 c 0,-4.37 0.78,-11.47 1.46,-15.78 l 0.79,-2.61 c 0.68,-4.32 3.7,-10.59 6.51,-13.94 l 5.34,-6.27 c 2.8,-3.36 1.58,-6.27 -2.79,-6.47 l -0.13,-0.01 c -4.37,-0.22 -10.03,2.5 -12.61,6.03 l -9.22,12.71 c -2.58,3.53 -5.3,9.95 -6.07,14.25 l -1.14,6.42 c -0.77,4.3 -4.37,9.8 -8.01,12.22 l -28.42,18.9 c -3.63,2.42 -7.25,7.93 -8.02,12.23 l -3.93,21.88 c -0.78,4.3 -2.85,11.09 -4.62,15.09 l -33.62,76.27 c -1.76,3.99 -6.33,9 -10.15,11.13 l -77.89,43.29 c -0.44,0.25 -1.02,0.48 -1.54,0.73 0.03,-21.09 0.04,-104.75 0.02,-449.86 1.72,-62.34 -47.82,-115.01 -110.78,-117.57 -1.59,-0.06 -3.13,-0.09 -4.66,-0.09 -17.19,0 -34.44,3.96 -49.9,11.47 l -221.82,106.67 -41.25,-51.04 c -0.38,-0.49 -0.78,-0.97 -1.2,-1.44 -6.82,-8.09 -15.37,-14.36 -24.85,-18.59 l 4.72,-10.67"
         style="fill:#50aae3;fill-opacity:1;fill-rule:nonzero;stroke:none"
         id="path3787"
         inkscape:connector-curvature="0" /><path
         d="m 1692.54,1666.4 0.01,-0.01 0,0 c -0.01,0.01 -0.01,0 -0.01,0.01"
         style="fill:#50aae3;fill-opacity:1;fill-rule:nonzero;stroke:none"
         id="path3789"
         inkscape:connector-curvature="0" /><path
         d="m 1692.54,1666.4 c -0.06,0.06 -0.06,0.06 0,0 l 0,0"
         style="fill:#50aae3;fill-opacity:1;fill-rule:nonzero;stroke:none"
         id="path3791"
         inkscape:connector-curvature="0" /><path
         d="m 2238.68,2797.14 c 0,0 -253.68,4.68 -438.65,-180.29 l 0.23,-0.25 c -57.62,-56.69 -104.34,-124.42 -136.67,-199.74 l 74.89,33.64 c 91.32,162.49 288.47,294.41 499.85,294.41 0.1,0 0.19,0 0.29,0 316.12,0 573.3,-257.51 573.3,-573.62 0,-28.79 -2.16,-57.24 -6.27,-84.9 0.02,-0.01 0.04,-0.1 0.07,-0.1 -4.34,-29.37 -10.9,-58.08 -19.51,-85.84 -0.09,-0.06 -0.17,-0.16 -0.26,-0.22 -72.84,-232.99 -290.66,-402.56 -547.34,-402.56 -225.4,0 -420.81,130.77 -514.41,320.41 -3.74,-10.53 -7.45,-21.31 -10.83,-32.53 -3.76,-12.16 -7.22,-24.71 -10.26,-37.37 42.17,-69.69 97.55,-130.54 162.65,-179.04 -1.96,-0.72 -3.88,-1.43 -5.94,-2.19 -6.11,-2 -12.6,-4.13 -19.45,-6.39 -6.86,-1.86 -14.09,-4.11 -21.62,-5.87 -12.3,-3.07 -25.46,-5.43 -39.02,-6.89 -3.03,-0.32 -6.06,-0.65 -9.12,-0.87 -16.73,-1.14 -33.95,-0.21 -49.2,4.39 l -5.72,1.76 c -1.85,0.68 -3.52,1.58 -5.32,2.33 -3.75,1.35 -6.79,3.55 -10.14,5.45 -1.78,0.85 -3.06,2.25 -4.6,3.39 l -2.27,1.75 -1.15,0.88 -0.29,0.22 -0.15,0.1 c 1.36,-1.41 0.96,-0.99 0.78,-0.81 l -0.73,0.74 c -1.84,1.89 -4.12,4.11 -5.61,5.76 -0.93,1.21 -1.91,2.39 -2.98,3.54 -9.69,12.53 -15.74,29.91 -18.39,49.12 -1.2,9.66 -1.63,19.71 -1.52,29.89 0.39,10.22 1.02,20.54 2.48,30.86 2.61,20.64 7.26,41.14 12.74,60.83 10.99,39.42 25.48,75.61 39.04,106.09 0.81,1.82 1.61,3.55 2.42,5.32 -13.12,1.39 -25.21,6.48 -35.21,14.24 -0.52,-0.97 -1.02,-1.89 -1.53,-2.86 -16.11,-30.68 -33.73,-67.34 -48.37,-109.05 -7.28,-20.85 -13.9,-42.95 -18.46,-66.39 -2.43,-11.67 -4.03,-23.77 -5.27,-36.07 -0.98,-12.38 -1.3,-25.04 -0.55,-37.99 1.82,-25.74 8.34,-53.46 24.36,-77.74 2.32,-3.27 4.74,-6.52 7.2,-9.71 2.1,-2.58 3.71,-4.33 5.58,-6.54 l 0.68,-0.78 c 0.49,-0.5 -0.84,0.85 1.14,-1.19 l 0.24,-0.22 0.49,-0.47 1.98,-1.84 3.97,-3.65 c 2.71,-2.36 5.23,-4.99 8.22,-6.9 5.79,-4.11 11.54,-8.36 17.75,-11.34 3.05,-1.59 6.09,-3.32 9.18,-4.71 3.13,-1.24 6.24,-2.47 9.33,-3.7 25.01,-9.36 49.49,-11.81 71.61,-11.86 3.16,0.02 6.2,0.16 9.29,0.27 18.53,0.58 35.81,2.55 51.41,5.34 9.16,1.52 17.67,3.55 25.9,5.25 8.03,2.05 15.71,3.92 22.83,5.86 7.05,2.09 13.64,4.04 19.75,5.84 6.12,2.05 11.76,3.92 16.85,5.62 2.55,0.85 4.95,1.67 7.22,2.44 2.09,0.75 4.05,1.47 5.86,2.14 3.62,1.34 6.69,2.47 9.19,3.39 2.65,0.98 4.58,2.02 5.87,2.49 87.25,-46.28 186.66,-72.23 292.1,-72.23 0.02,0 0.05,0 0.07,0 l 0,0 c 8.45,0 16.85,-0.1 25.23,0.23 293.25,11.73 535.16,226.15 588.93,506.8 7.34,38.2 11.26,77.9 11.26,118.21 0,344.86 -281.44,625.72 -625.42,625.72"
         style="fill:#50aae3;fill-opacity:1;fill-rule:nonzero;stroke:none"
         id="path3793"
         inkscape:connector-curvature="0" /><path
         d="m 2124.43,2033.82 c 0,-0.3 0,-0.61 0.01,-0.91 0.32,-8.04 -2.66,-15.82 -8.41,-21.89 -5.83,-6.18 -13.65,-9.75 -22.05,-10.1 -5.26,-0.17 -10.25,0.87 -14.89,3.18 -0.28,0.13 -0.56,0.26 -0.84,0.4 l -270.78,130.23 287.24,341.7 c 3.02,3.58 2.8,8.89 -0.51,12.22 -3.31,3.34 -8.62,3.6 -12.23,0.6 L 1701.56,2174 l -184.35,53.88 c -0.71,0.25 -1.43,0.47 -2.18,0.65 -6.51,1.59 -11.25,7.38 -11.52,14.05 -0.27,6.53 3.67,12.46 9.81,14.76 0.72,0.28 1.43,0.59 2.11,0.93 l 563.96,256.61 c 4.47,1.53 10.84,3.29 13.05,3.43 l 1.27,0.03 c 16.46,0 29.9,-12.82 30.72,-29.14 0.01,-15.42 0,-450.93 0,-455.38 z m -440.08,98.7 11.03,-108.96 c 1.33,-9.11 9.51,-26.32 30.94,-26.32 8.59,0 16.77,4.01 22.54,11.02 0.14,0.15 0.27,0.29 0.39,0.45 l 60.79,75.24 249.42,-119.96 c 0.13,-0.08 0.27,-0.13 0.42,-0.2 10.17,-4.93 21.5,-7.54 32.82,-7.54 1.03,0 2.07,0.02 3.09,0.06 20.09,0.81 38.79,9.35 52.68,24.03 13.98,14.76 21.28,33.89 20.6,53.89 0.02,455.3 0,455.73 -0.02,456.38 -1.64,40.58 -34.73,72.37 -75.34,72.37 -1.02,0 -2.05,-0.02 -3.09,-0.06 -9.94,-0.41 -23.24,-4.92 -27.08,-6.29 -0.58,-0.21 -1.16,-0.44 -1.73,-0.7 l -565.23,-257.19 c -23.6,-9.36 -38.71,-32.51 -37.69,-57.97 1.07,-25.95 19.1,-48.45 44.07,-55.23 0.17,-0.06 0.35,-0.11 0.53,-0.17 l 180.86,-52.85"
         style="fill:#50aae3;fill-opacity:1;fill-rule:nonzero;stroke:none"
         id="path3795"
         inkscape:connector-curvature="0" /></g></g></svg>