<?xml version="1.0" encoding="UTF-8" standalone="no"?>
<!-- Created with Inkscape (http://www.inkscape.org/) -->

<svg
   xmlns:dc="http://purl.org/dc/elements/1.1/"
   xmlns:cc="http://creativecommons.org/ns#"
   xmlns:rdf="http://www.w3.org/1999/02/22-rdf-syntax-ns#"
   xmlns:svg="http://www.w3.org/2000/svg"
   xmlns="http://www.w3.org/2000/svg"
   xmlns:sodipodi="http://sodipodi.sourceforge.net/DTD/sodipodi-0.dtd"
   xmlns:inkscape="http://www.inkscape.org/namespaces/inkscape"
   id="svg2"
   version="1.1"
   inkscape:version="0.91 r13725"
   xml:space="preserve"
   width="1539.8879"
   height="221.5"
   viewBox="0 0 1539.888 221.5"
   sodipodi:docname="sw_lockup_logo.svg"><metadata
     id="metadata8"><rdf:RDF><cc:Work
         rdf:about=""><dc:format>image/svg+xml</dc:format><dc:type
           rdf:resource="http://purl.org/dc/dcmitype/StillImage" /><dc:title></dc:title></cc:Work></rdf:RDF></metadata><defs
     id="defs6" /><sodipodi:namedview
     pagecolor="#ffffff"
     bordercolor="#666666"
     borderopacity="1"
     objecttolerance="10"
     gridtolerance="10"
     guidetolerance="10"
     inkscape:pageopacity="0"
     inkscape:pageshadow="2"
     inkscape:window-width="640"
     inkscape:window-height="480"
     id="namedview4"
     showgrid="false"
     fit-margin-top="0"
     fit-margin-left="0"
     fit-margin-right="0"
     fit-margin-bottom="0"
     inkscape:zoom="0.19429812"
     inkscape:cx="769.75477"
     inkscape:cy="111.11913"
     inkscape:window-x="0"
     inkscape:window-y="27"
     inkscape:window-maximized="0"
     inkscape:current-layer="g10" /><g
     id="g10"
     inkscape:groupmode="layer"
     inkscape:label="ink_ext_XXXXXX"
     transform="matrix(1.25,0,0,-1.25,-174.67022,395.39336)"><g
       id="g12"
       transform="scale(0.103067,0.103067)"><path
         d="m 9520.61,2419.03 0,-25.11 -34.92,0 0,-91.44 -30.42,0 0,91.44 -34.58,0 0,25.11 99.92,0"
         style="fill:#29333d;fill-opacity:1;fill-rule:nonzero;stroke:none"
         id="path14"
         inkscape:connector-curvature="0" /><path
         d="m 9562.86,2419.03 30.92,-68.01 30.92,68.01 33.25,0 0,-116.55 -26.93,0 -0.16,73.82 -27.1,-62.19 -19.96,0 -27.09,62.19 0,-73.82 -27.11,0 0,116.55 33.26,0"
         style="fill:#29333d;fill-opacity:1;fill-rule:nonzero;stroke:none"
         id="path16"
         inkscape:connector-curvature="0" /><path
         d="m 4028.53,2037.22 0,54.19 -122.23,0 c -57.65,0 -86.47,-20.76 -86.47,-64.57 0,-42.66 31.13,-70.34 84.17,-70.34 61.1,0 111.84,33.45 124.53,80.72 z m 201.77,194.86 0,-405.87 -201.77,0 0,70.33 c -40.36,-51.88 -103.77,-79.54 -187.94,-79.54 -133.75,0 -213.32,80.7 -213.32,194.85 0,118.76 84.17,186.8 238.68,189.1 l 162.58,0 0,6.91 c 0,58.8 -40.36,93.4 -118.76,93.4 -51.9,0 -119.92,-17.3 -186.8,-49.58 l -56.5,138.37 c 98.01,43.8 187.96,68.02 290.57,68.02 171.8,0 272.1,-83.02 273.26,-225.99"
         style="fill:#29333d;fill-opacity:1;fill-rule:nonzero;stroke:none"
         id="path18"
         inkscape:connector-curvature="0" /><path
         d="m 5116.61,1852.2 c -44.97,-26.53 -107.24,-41.52 -168.34,-41.52 -121.06,-1.16 -208.7,70.33 -208.7,199.47 l 0,574.9 204.09,0 0,-171.34 161.41,0 0,-147.35 -161.41,0 0,-223.92 c 0,-46.13 20.74,-66.88 56.49,-65.73 20.76,0 47.28,8.08 77.26,20.76 l 39.2,-145.27"
         style="fill:#29333d;fill-opacity:1;fill-rule:nonzero;stroke:none"
         id="path20"
         inkscape:connector-curvature="0" /><path
         d="m 4690.5,2450.76 0,-187.94 c -114.14,11.52 -190.25,-39.2 -200.62,-125.68 l 0,-318.23 -205.23,0 0,623.78 205.23,0 0,-103.76 c 42.67,71.48 113,111.83 200.62,111.83"
         style="fill:#29333d;fill-opacity:1;fill-rule:nonzero;stroke:none"
         id="path22"
         inkscape:connector-curvature="0" /><path
         d="m 5779.98,2429.66 0,-623.77 -205.23,0 0,101.46 c -42.66,-72.64 -110.69,-109.54 -199.46,-110.69 -134.92,0 -222.54,93.4 -222.54,238.68 l 0,394.32 205.23,0 0,-335.52 c 0,-70.34 39.2,-113 100.31,-113 72.64,1.15 116.46,58.81 116.46,140.67 l 0,307.85 205.23,0"
         style="fill:#29333d;fill-opacity:1;fill-rule:nonzero;stroke:none"
         id="path24"
         inkscape:connector-curvature="0" /><path
         d="m 3234.62,2413.71 0,171.34 204.08,0 0,-171.34 161.42,0 0,-148.6 -161.42,0 0,-222.67 c 0,-46.13 20.74,-66.88 56.5,-65.73 20.76,0 47.28,8.08 77.25,20.76 l 39.19,-145.27 c -44.96,-26.53 -107.23,-41.52 -168.32,-41.52 -121.07,-1.16 -208.7,70.33 -208.7,199.47 l 0,254.96"
         style="fill:#29333d;fill-opacity:1;fill-rule:nonzero;stroke:none"
         id="path26"
         inkscape:connector-curvature="0" /><path
         d="m 6310.18,2117.11 c 0,92.24 -54.19,155.65 -134.91,155.65 -78.4,0 -132.6,-63.41 -132.6,-155.65 0,-92.24 54.2,-154.51 132.6,-154.51 80.72,0 134.91,62.27 134.91,154.51 z m 206.39,-4.62 c 0,-190.24 -113,-315.92 -285.94,-315.92 -79.57,0 -144.14,31.13 -187.96,87.62 l 0,-304.39 -205.23,0 0,847.47 205.23,0 0,-80.72 c 43.82,56.51 106.09,87.63 183.34,87.63 174.1,0 290.56,-127.98 290.56,-321.69"
         style="fill:#29333d;fill-opacity:1;fill-rule:nonzero;stroke:none"
         id="path28"
         inkscape:connector-curvature="0" /><path
         d="m 2638.29,1912.04 82.82,134.14 c 72.32,-47.82 151.64,-72.32 216.96,-72.32 38.49,0 55.99,11.66 55.99,33.84 l 0,2.32 c 0,24.5 -35,35 -101.48,53.67 -124.81,32.65 -223.96,74.65 -223.96,201.79 l 0,2.34 c 0,134.13 107.31,208.79 253.11,208.79 92.16,0 187.81,-26.82 260.13,-73.48 l -75.82,-139.98 c -65.33,36.16 -136.48,58.32 -186.63,58.32 -33.84,0 -51.33,-12.83 -51.33,-30.33 l 0,-2.33 c 0,-24.5 36.16,-36.16 102.65,-55.99 124.81,-35 223.97,-78.15 223.97,-200.64 l 0,-2.32 c 0,-138.82 -103.82,-211.14 -257.8,-211.14 -106.14,0 -211.12,30.33 -298.61,93.32"
         style="fill:#29333d;fill-opacity:1;fill-rule:nonzero;stroke:none"
         id="path30"
         inkscape:connector-curvature="0" /><path
         d="m 7827.05,2190.44 c 0,72.37 -46.7,121.4 -116.73,121.4 -67.71,0 -112.07,-49.03 -126.07,-121.4 l 242.8,0 z m 200.77,-110.9 -438.91,0 c 19.84,-71.2 72.37,-110.89 143.59,-110.89 53.69,0 106.22,22.18 148.24,64.21 l 108.56,-108.58 c -64.21,-72.37 -158.76,-112.06 -275.48,-112.06 -206.61,0 -333.86,127.24 -333.86,319.85 0,196.11 131.9,325.68 329.18,325.68 220.63,0 332.69,-148.24 318.68,-378.21"
         style="fill:#29333d;fill-opacity:1;fill-rule:nonzero;stroke:none"
         id="path32"
         inkscape:connector-curvature="0" /><path
         d="m 8506.38,2190.53 c 0,72.36 -46.7,121.4 -116.73,121.4 -67.71,0 -112.06,-49.04 -126.07,-121.4 l 242.8,0 z m 200.77,-110.9 -438.92,0 c 19.86,-71.2 72.38,-110.89 143.6,-110.89 53.69,0 106.22,22.18 148.24,64.21 l 108.56,-108.58 c -64.21,-72.37 -158.76,-112.06 -275.48,-112.06 -206.61,0 -333.86,127.23 -333.86,319.85 0,196.11 131.91,325.69 329.19,325.69 220.62,0 332.68,-148.26 318.67,-378.22"
         style="fill:#29333d;fill-opacity:1;fill-rule:nonzero;stroke:none"
         id="path34"
         inkscape:connector-curvature="0" /><path
         d="m 9357.82,2424 -251.06,0 -154.02,-174.7 0,387.99 -207.78,0 0,-825.26 207.78,0 0,225.47 161.42,-216.91 232.09,0 -232.09,320.64 243.66,282.77"
         style="fill:#29333d;fill-opacity:1;fill-rule:nonzero;stroke:none"
         id="path36"
         inkscape:connector-curvature="0" /><path
         d="m 6486.1,2430.52 215.99,0 76.68,-293.72 72.14,293.72 195.91,0 73.31,-296.06 78.86,296.06 212.51,0 -187.55,-612.16 -191.31,0 -84.36,327.78 -86.7,-327.78 -190.13,0 -185.35,612.16"
         style="fill:#29333d;fill-opacity:1;fill-rule:nonzero;stroke:none"
         id="path38"
         inkscape:connector-curvature="0" /><path
         d="m 10158.9,1365.24 11.156,0 0,1566.77 -11.156,0 0,-1566.77 z"
         style="fill:#29333d;fill-opacity:1;fill-rule:nonzero;stroke:none"
         id="path40"
         inkscape:connector-curvature="0" /><path
         d="m 11606,2074.02 113.6,364.68 -237.1,182.33 -613.7,-601.44 659.5,0 77.2,52.76 0.5,1.67"
         style="fill:#6a90a3;fill-opacity:1;fill-rule:nonzero;stroke:none"
         id="path42"
         inkscape:connector-curvature="0" /><path
         d="m 12366.7,2621.01 -237.2,-182.31 114,-366.25 77.4,-52.86 659.4,0 -613.6,601.42"
         style="fill:#6a90a3;fill-opacity:1;fill-rule:nonzero;stroke:none"
         id="path44"
         inkscape:connector-curvature="0" /><path
         d="m 12256,2828.19 -250.2,0.61 -81.2,240.22 -81.3,-240.22 -250.2,-0.61 200,-153.85 -73.4,-235.88 204.9,140.36 204.8,-140.36 -73.4,235.88 200,153.85"
         style="fill:#33b440;fill-opacity:1;fill-rule:nonzero;stroke:none"
         id="path46"
         inkscape:connector-curvature="0" /><path
         d="m 11925.4,2289.71 -0.8,0.59 -396.3,-270.71 792.6,0 -395.5,270.12"
         style="fill:#33b440;fill-opacity:1;fill-rule:nonzero;stroke:none"
         id="path48"
         inkscape:connector-curvature="0" /><path
         d="m 10623.1,1722.43 0,38.3 64.8,0 0,82.99 47.8,20.75 0,-103.74 81.4,0 0,-38.3 -81.4,0 0,-258.54 c 0,-53.46 5.6,-66.26 43.8,-66.26 16.1,0 27.2,0.8 37.6,2.41 l 0,-41.5 c -14.4,-1.6 -30.4,-2.41 -45.5,-2.41 -64.6,0 -83.7,28.74 -83.7,78.22 l 0,288.08 -64.8,0"
         style="fill:#6a90a3;fill-opacity:1;fill-rule:nonzero;stroke:none"
         id="path50"
         inkscape:connector-curvature="0" /><path
         d="m 11100.4,1587.55 c 0,89.38 -14.4,142.87 -91,142.87 -76.6,0 -90.9,-53.49 -90.9,-142.87 l 181.9,0 z m -181.9,-38.29 0,-31.11 c 0,-55.86 15.1,-130.08 90.9,-130.08 59.9,0 89.4,38.3 88.6,92.56 l 50.2,0 c -5.5,-97.36 -58.2,-130.88 -138.8,-130.88 -69.4,0 -138.9,27.93 -138.9,150.02 l 0,98.97 c 0,116.51 48.8,169.97 138.9,169.97 138.8,0 138.8,-99.74 138.8,-219.45 l -229.7,0"
         style="fill:#6a90a3;fill-opacity:1;fill-rule:nonzero;stroke:none"
         id="path52"
         inkscape:connector-curvature="0" /><path
         d="m 11414.9,1645.02 c 2.4,50.29 -16.1,85.4 -71.1,85.4 -29.5,0 -54.2,-16.78 -64.6,-46.31 -6.4,-18.35 -11.1,-73.41 -11.1,-126.87 0,-72.6 0,-169.17 74.1,-169.17 63,0 71,39.9 73.4,88.58 l 48,0 c 3.9,-108.52 -72.7,-126.9 -110.2,-126.9 -136.5,0 -136.5,107.76 -136.5,207.49 0,39.9 1.7,102.94 12,133.26 20.7,57.46 66.2,78.21 121.3,78.21 69.4,0 116.5,-39.1 112.5,-123.69 l -47.8,0"
         style="fill:#6a90a3;fill-opacity:1;fill-rule:nonzero;stroke:none"
         id="path54"
         inkscape:connector-curvature="0" /><path
         d="m 11545.7,1357.73 0,576.18 48,0 0,-222.67 1.5,0 c 23.2,33.51 54.3,57.47 97.3,57.47 99.9,0 110.2,-74.21 110.2,-126.87 l 0,-284.11 -47.9,0 0,281.71 c 0,47.08 -18.3,90.98 -74.2,90.98 -43.1,0 -86.9,-29.53 -86.9,-119.72 l 0,-252.97 -48,0"
         style="fill:#6a90a3;fill-opacity:1;fill-rule:nonzero;stroke:none"
         id="path56"
         inkscape:connector-curvature="0" /><path
         d="m 12007,1349.75 c -86.9,0 -121.3,42.3 -120.5,127.7 l 48.7,0 c 0,-55.06 12.8,-91.79 74.2,-91.79 46.3,0 68.6,26.34 68.6,71.05 0,105.31 -181.1,78.18 -181.1,211.46 0,74.21 51.1,100.54 121.2,100.54 79.9,0 105.4,-55.07 105.4,-116.51 l -47,0 c -2.5,51.09 -16.1,78.22 -70.3,78.22 -34.3,0 -61.4,-22.35 -61.4,-58.27 0,-100.54 181.1,-73.41 181.1,-208.26 0,-75.82 -43.9,-114.14 -118.9,-114.14"
         style="fill:#6a90a3;fill-opacity:1;fill-rule:nonzero;stroke:none"
         id="path58"
         inkscape:connector-curvature="0" /><path
         d="m 12174.6,1722.43 0,38.3 64.7,0 0,82.99 47.9,20.75 0,-103.74 81.3,0 0,-38.3 -81.3,0 0,-258.54 c 0,-53.46 5.5,-66.26 43.8,-66.26 16,0 27.2,0.8 37.5,2.41 l 0,-41.5 c -14.4,-1.6 -30.3,-2.41 -45.4,-2.41 -64.7,0 -83.8,28.74 -83.8,78.22 l 0,288.08 -64.7,0"
         style="fill:#6a90a3;fill-opacity:1;fill-rule:nonzero;stroke:none"
         id="path60"
         inkscape:connector-curvature="0" /><path
         d="m 12637.4,1563.63 c -68.5,-2.41 -172.3,5.58 -172.3,-92.56 0,-45.51 23.1,-83 72.6,-83 55.1,0 99.7,49.48 99.7,102.15 l 0,73.41 z m 3.3,-156.41 -1.6,0 c -25.5,-38.29 -64.6,-57.47 -114.1,-57.47 -71.9,0 -111,48.68 -111,118.92 0,141.23 142,126.87 223.4,133.24 l 0,33.51 c 0,59.08 -17.5,95 -81.4,95 -43.8,0 -78.9,-21.55 -78.9,-69.43 l -51.1,0 c 4,77.39 63.9,107.72 134.1,107.72 40.7,0 125.3,-4.01 125.3,-106.92 l 0,-202.72 c 0,-28.69 0,-54.25 4.7,-101.34 l -49.4,0 0,49.49"
         style="fill:#6a90a3;fill-opacity:1;fill-rule:nonzero;stroke:none"
         id="path62"
         inkscape:connector-curvature="0" /><path
         d="m 12829.8,1706.46 1.6,0 c 20,38.29 62.3,62.25 111,62.25 l 0,-48.68 c -67.8,5.58 -112.6,-35.12 -112.6,-102.94 l 0,-259.36 -47.9,0 0,403 47.9,0 0,-54.27"
         style="fill:#6a90a3;fill-opacity:1;fill-rule:nonzero;stroke:none"
         id="path64"
         inkscape:connector-curvature="0" /><path
         d="m 13103.6,1349.75 c -87,0 -121.3,42.3 -120.6,127.7 l 48.8,0 c 0,-55.06 12.8,-91.79 74.2,-91.79 46.3,0 68.6,26.34 68.6,71.05 0,105.31 -181.2,78.18 -181.2,211.46 0,74.21 51.2,100.54 121.3,100.54 79.9,0 105.4,-55.07 105.4,-116.51 l -47.1,0 c -2.4,51.09 -16,78.22 -70.2,78.22 -34.4,0 -61.4,-22.35 -61.4,-58.27 0,-100.54 181.1,-73.41 181.1,-208.26 0,-75.82 -43.9,-114.14 -118.9,-114.14"
         style="fill:#6a90a3;fill-opacity:1;fill-rule:nonzero;stroke:none"
         id="path66"
         inkscape:connector-curvature="0" /><path
         d="m 13258.6,1770.64 9,0 c 2.8,0.08 5.1,0.75 6.7,2.03 1.8,1.26 2.6,2.94 2.6,5.03 0,2.81 -0.7,4.8 -2.3,5.98 -1.5,1.17 -4.2,1.77 -8,1.77 l -8,0 0,-14.81 z m 0,-7.43 0,-19.62 -8.3,0 0,49.29 16.2,0 c 5.9,0 10.4,-1.27 13.7,-3.81 3.2,-2.53 4.9,-6.22 4.9,-11.05 0,-4.77 -2.4,-8.4 -7.4,-10.91 4.7,-1.94 7.1,-5.88 7.1,-11.84 l 0,-3.54 c 0,-3.33 0.4,-5.74 1,-7.2 l 0,-0.94 -8.4,0 c -0.6,1.39 -0.9,3.89 -0.9,7.46 0,3.59 0,5.7 -0.1,6.36 -0.6,3.72 -3.2,5.65 -7.6,5.8 l -10.2,0 z m -26,4.38 c 0,-6.64 1.5,-12.81 4.7,-18.46 3.1,-5.67 7.2,-10.1 12.6,-13.32 5.3,-3.2 11,-4.81 17.2,-4.81 6.2,0 12.1,1.63 17.4,4.9 5.3,3.27 9.5,7.71 12.5,13.31 3,5.61 4.6,11.74 4.6,18.38 0,6.62 -1.6,12.72 -4.6,18.3 -3,5.59 -7.2,9.99 -12.5,13.22 -5.3,3.23 -11.2,4.85 -17.4,4.85 -6.2,0 -11.9,-1.6 -17.2,-4.78 -5.5,-3.19 -9.6,-7.61 -12.7,-13.25 -3.1,-5.65 -4.6,-11.76 -4.6,-18.34 z m -6.7,-0.02 c 0,7.82 1.8,15.07 5.4,21.76 3.6,6.7 8.7,11.97 15.1,15.82 6.4,3.84 13.3,5.77 20.7,5.77 7.4,0 14.4,-1.93 20.7,-5.77 6.4,-3.85 11.5,-9.12 15,-15.82 3.6,-6.69 5.5,-13.94 5.5,-21.76 0,-7.62 -1.8,-14.77 -5.3,-21.42 -3.5,-6.66 -8.4,-12.01 -14.8,-16.05 -6.4,-4.05 -13.4,-6.05 -21.1,-6.05 -7.6,0 -14.6,1.99 -21,5.99 -6.4,4.01 -11.4,9.34 -15,15.99 -3.5,6.66 -5.2,13.84 -5.2,21.54"
         style="fill:#6a90a3;fill-opacity:1;fill-rule:nonzero;stroke:none"
         id="path68"
         inkscape:connector-curvature="0" /><path
         d="m 1570.92,1640.41 83.73,241.8 c 31.53,-8.13 64.42,-13.63 95.76,-17.32 l -84.95,-245.3 c -43.18,7.74 -75.71,15.74 -94.54,20.82 z m -170.26,690.13 c 0,296.75 241.42,538.17 538.17,538.17 296.74,0 538.17,-241.42 538.17,-538.17 0,-160.96 -70.32,-300.55 -198,-393.07 l -6.86,-4.98 c -139.15,-47.93 -326.14,-43.38 -329.05,-43.53 -2.93,0.15 -193.46,-8.95 -332.98,40.2 l -11.5,8.35 c -127.65,92.52 -197.95,232.1 -197.95,393.03 z m 918.54,-419.02 c 130.85,101.07 202.67,249.21 202.67,419.02 0,321.49 -261.55,583.05 -583.04,583.05 -321.5,0 -583.05,-261.56 -583.05,-583.05 0,-169.82 71.84,-317.95 202.7,-419.04 l -81.23,-214.59 c -5.54,-14.66 -4.8,-31.16 2.06,-45.32 6.86,-14.1 19.37,-24.89 34.35,-29.61 7.4,-2.32 183.96,-56.78 425.94,-56.78 252.9,0 389.36,43.26 425.15,56.51 l 0.72,0.29 c 15,4.73 27.53,15.58 34.39,29.78 6.81,14.19 7.48,30.74 1.84,45.44 l -82.5,214.3"
         style="fill:#eb551d;fill-opacity:1;fill-rule:nonzero;stroke:none"
         id="path70"
         inkscape:connector-curvature="0" /><path
         d="m 2297.16,2525.89 -26.92,0 0,-26.93 -26.92,0 0,26.93 -26.93,0 0,26.92 26.93,0 0,26.93 26.92,0 0,-26.93 26.92,0 0,-26.92 z m -159.47,61.01 c -26.01,0 -47.1,21.08 -47.1,47.09 0,26.03 21.09,47.11 47.1,47.11 26.01,0 47.1,-21.08 47.1,-47.11 0,-26.01 -21.09,-47.09 -47.1,-47.09 z m -146.24,-19.69 c -15.14,0 -27.41,12.27 -27.41,27.41 0,15.14 12.27,27.42 27.41,27.42 15.15,0 27.42,-12.28 27.42,-27.42 0,-15.14 -12.27,-27.41 -27.42,-27.41 z m -67.04,133.33 c -114.72,0 -222,-56.55 -286.99,-151.29 -5.22,-7.61 -13.65,-11.7 -22.22,-11.7 -5.25,0 -10.55,1.54 -15.21,4.73 -12.26,8.41 -15.39,25.17 -6.97,37.43 75.03,109.38 198.91,174.68 331.39,174.68 14.86,0 26.92,-12.05 26.92,-26.93 0,-14.86 -12.06,-26.92 -26.92,-26.92 z m -389.93,-609.9 31.29,0 0,157.05 35.89,0 0,89.74 53.85,0 0,71.8 31.4,0 0,-71.8 53.85,0 0,-89.74 40.38,0 0,-237.81 44.88,0 0,307.34 80.77,158.84 80.76,-158.84 0,-271.45 44.88,0 0,354.48 192.94,0 0,-305.12 35.9,0 0,112.17 49.35,0 0,-76.28 31.42,0 0,-49.59 c -4.49,-2 81.75,89.98 81.75,255.08 0,266.4 -216.29,482.35 -482.69,482.35 -266.41,0 -482.53,-215.95 -482.53,-482.35 0,-156.12 79.34,-251.02 75.91,-245.87"
         style="fill:#eb551d;fill-opacity:1;fill-rule:nonzero;stroke:none"
         id="path72"
         inkscape:connector-curvature="0" /><path
         d="m 1905.11,2244.17 c 21.07,0 38.14,17.06 38.14,38.14 0,21.05 -17.07,38.13 -38.14,38.13 -21.06,0 -38.14,-17.08 -38.14,-38.13 0,-21.08 17.08,-38.14 38.14,-38.14"
         style="fill:#eb551d;fill-opacity:1;fill-rule:nonzero;stroke:none"
         id="path74"
         inkscape:connector-curvature="0" /><path
         d="m 1637.56,2171.41 71.7969,0 0,35.8867 -71.7969,0 0,-35.8867 z"
         style="fill:#eb551d;fill-opacity:1;fill-rule:nonzero;stroke:none"
         id="path76"
         inkscape:connector-curvature="0" /><path
         d="m 1637.56,2234.23 71.7969,0 0,35.8984 -71.7969,0 0,-35.8984 z"
         style="fill:#eb551d;fill-opacity:1;fill-rule:nonzero;stroke:none"
         id="path78"
         inkscape:connector-curvature="0" /><path
         d="m 1637.56,2113.07 71.7969,0 0,35.9023 -71.7969,0 0,-35.9023 z"
         style="fill:#eb551d;fill-opacity:1;fill-rule:nonzero;stroke:none"
         id="path80"
         inkscape:connector-curvature="0" /><path
         d="m 1637.56,2045.77 71.7969,0 0,35.8984 -71.7969,0 0,-35.8984 z"
         style="fill:#eb551d;fill-opacity:1;fill-rule:nonzero;stroke:none"
         id="path82"
         inkscape:connector-curvature="0" /><path
         d="m 2095.25,2297.05 76.2773,0 0,35.9023 -76.2773,0 0,-35.9023 z"
         style="fill:#eb551d;fill-opacity:1;fill-rule:nonzero;stroke:none"
         id="path84"
         inkscape:connector-curvature="0" /><path
         d="m 2095.25,2225.25 76.2773,0 0,35.8984 -76.2773,0 0,-35.8984 z"
         style="fill:#eb551d;fill-opacity:1;fill-rule:nonzero;stroke:none"
         id="path86"
         inkscape:connector-curvature="0" /><path
         d="m 2095.25,2159.49 76.2773,0 0,35.8906 -76.2773,0 0,-35.8906 z"
         style="fill:#eb551d;fill-opacity:1;fill-rule:nonzero;stroke:none"
         id="path88"
         inkscape:connector-curvature="0" /><path
         d="m 2095.25,2090.64 76.2773,0 0,35.8984 -76.2773,0 0,-35.8984 z"
         style="fill:#eb551d;fill-opacity:1;fill-rule:nonzero;stroke:none"
         id="path90"
         inkscape:connector-curvature="0" /><path
         d="m 2095.25,2018.84 76.2773,0 0,35.8984 -76.2773,0 0,-35.8984 z"
         style="fill:#eb551d;fill-opacity:1;fill-rule:nonzero;stroke:none"
         id="path92"
         inkscape:connector-curvature="0" /></g></g></svg>