<?xml version="1.0" encoding="utf-8"?>
<!-- Generator: Adobe Illustrator 19.2.1, SVG Export Plug-In . SVG Version: 6.00 Build 0)  -->
<svg version="1.1" id="Layer_1" xmlns="http://www.w3.org/2000/svg" xmlns:xlink="http://www.w3.org/1999/xlink" x="0px" y="0px"
	 viewBox="0 0 1024 768" style="enable-background:new 0 0 1024 768;" xml:space="preserve">
<style type="text/css">
	.st0{fill:#FFFFFF;}
</style>
<g>
	<g>
		<g>
			<path class="st0" d="M217.5,378.1v-3.4h5.8v-7.4l4.3-1.9v9.3h7.3v3.4h-7.3v23.1c0,4.8,0.5,5.9,3.9,5.9c1.4,0,2.4-0.1,3.4-0.2v3.7
				c-1.3,0.1-2.7,0.2-4.1,0.2c-5.8,0-7.5-2.6-7.5-7v-25.7H217.5z"/>
			<path class="st0" d="M242.9,393.6v2.8c0,5,1.4,11.6,8.2,11.6c5.4,0,8-3.4,8-8.3h4.5c-0.5,8.7-5.2,11.7-12.5,11.7
				c-6.2,0-12.5-2.5-12.5-13.4v-8.8c0-10.4,4.4-15.2,12.5-15.2c12.5,0,12.5,8.9,12.5,19.6H242.9z M259.2,390.2
				c0-8-1.3-12.8-8.2-12.8c-6.9,0-8.2,4.8-8.2,12.8H259.2z"/>
			<path class="st0" d="M286.3,385.1c0.2-4.5-1.4-7.6-6.4-7.6c-2.7,0-4.9,1.5-5.8,4.1c-0.6,1.6-1,6.6-1,11.3c0,6.5,0,15.1,6.7,15.1
				c5.7,0,6.4-3.6,6.6-7.9h4.3c0.4,9.7-6.5,11.3-9.9,11.3c-12.3,0-12.3-9.6-12.3-18.5c0-3.6,0.1-9.2,1.1-11.9c1.9-5.1,5.9-7,10.9-7
				c6.2,0,10.5,3.5,10.1,11H286.3z"/>
			<path class="st0" d="M296.9,410.7v-51.5h4.3v19.9h0.1c2.1-3,4.9-5.1,8.7-5.1c9,0,9.9,6.6,9.9,11.3v25.4h-4.3v-25.2
				c0-4.2-1.6-8.1-6.7-8.1c-3.9,0-7.8,2.6-7.8,10.7v22.6H296.9z"/>
			<path class="st0" d="M337.2,411.4c-7.8,0-10.9-3.8-10.8-11.4h4.4c0,4.9,1.1,8.2,6.7,8.2c4.2,0,6.2-2.4,6.2-6.3
				c0-9.4-16.3-7-16.3-18.9c0-6.6,4.6-9,10.9-9c7.2,0,9.5,4.9,9.5,10.4h-4.2c-0.2-4.6-1.4-7-6.3-7c-3.1,0-5.5,2-5.5,5.2
				c0,9,16.3,6.6,16.3,18.6C347.8,408,343.9,411.4,337.2,411.4z"/>
			<path class="st0" d="M351,378.1v-3.4h5.8v-7.4l4.3-1.9v9.3h7.3v3.4h-7.3v23.1c0,4.8,0.5,5.9,3.9,5.9c1.4,0,2.4-0.1,3.4-0.2v3.7
				c-1.3,0.1-2.7,0.2-4.1,0.2c-5.8,0-7.5-2.6-7.5-7v-25.7H351z"/>
			<path class="st0" d="M391.7,406.3h-0.1c-2.3,3.4-5.8,5.1-10.2,5.1c-6.5,0-10-4.3-10-10.6c0-12.6,12.8-11.3,20.1-11.9v-3
				c0-5.3-1.6-8.5-7.3-8.5c-3.9,0-7.1,1.9-7.1,6.2h-4.6c0.4-6.9,5.7-9.6,12-9.6c3.7,0,11.2,0.4,11.2,9.5v18.1c0,2.6,0,4.8,0.4,9.1
				h-4.4V406.3z M391.4,392.3c-6.2,0.2-15.5-0.5-15.5,8.3c0,4.1,2.1,7.4,6.5,7.4c4.9,0,9-4.4,9-9.1V392.3z"/>
			<path class="st0" d="M408.3,379.6h0.1c1.8-3.4,5.6-5.6,10-5.6v4.3c-6.1-0.5-10.1,3.1-10.1,9.2v23.2H404v-36h4.3V379.6z"/>
			<path class="st0" d="M432.1,411.4c-7.8,0-10.9-3.8-10.8-11.4h4.4c0,4.9,1.1,8.2,6.7,8.2c4.2,0,6.2-2.4,6.2-6.3
				c0-9.4-16.3-7-16.3-18.9c0-6.6,4.6-9,10.9-9c7.2,0,9.5,4.9,9.5,10.4h-4.2c-0.2-4.6-1.4-7-6.3-7c-3.1,0-5.5,2-5.5,5.2
				c0,9,16.3,6.6,16.3,18.6C442.7,408,438.8,411.4,432.1,411.4z"/>
			<path class="st0" d="M477.5,361.5h3.7v60.9h-3.7V361.5z"/>
			<path class="st0" d="M525.9,411.6c-7,0-12.9-5.1-13.1-12.4h4.3c0.1,6.8,5.1,8.7,11,8.7c4.9,0,10.6-2.9,10.6-8.5
				c0-4.4-3.2-6.5-6.9-7.7c-7.1-2.4-18-4.6-18-14.1c0-7.7,7.1-11.9,14-11.9c5.8,0,13.3,2,14.3,10.5h-4.3c-0.1-5.4-5.1-6.8-9.6-6.8
				c-4.6,0-10.2,2.3-10.2,7.7c0,12.5,24.8,6.8,24.8,22C542.9,408.7,534.7,411.6,525.9,411.6z"/>
			<path class="st0" d="M552.9,383.5h-6.1v-3.3h6.1v-6.5l3.7-1.6v8.1h6.9v3.3h-6.9V404c-0.1,2.8,1.4,4.3,4.2,4.3
				c1.1,0,2.2-0.1,3.2-0.4v3.2c-1.2,0.3-2.5,0.5-3.7,0.5c-7.7,0-7.3-4.9-7.3-9.1V383.5z"/>
			<path class="st0" d="M588,389.2c-0.4-5-2.9-6.6-7.2-6.6c-3.8,0-7,1.2-7.5,5.3h-3.9c0.9-6.3,5.6-8.6,11.4-8.6
				c6.8,0,11,3.1,10.8,10.1v14.5c-0.1,2.4,0.2,4.8,0.3,6.9h-3.8l-0.1-4.5h-0.1l-0.2,0.4c-1.3,2.6-5.4,5-9.6,5
				c-5.7,0-10.2-3.5-10.2-9.4c0-4.1,2.5-7.3,6.1-8.8c4.1-1.8,9.4-1.2,13.8-1.4V389.2z M578.9,408.3c8,0,9.5-6.6,9.1-13
				c-5.2,0.2-16-0.8-16,6.9C572,406.3,575.1,408.3,578.9,408.3z"/>
			<path class="st0" d="M603.7,410.7h-3.7V387c0.1-2.4-0.2-4.8-0.3-6.9h3.8l0.2,4.5h0.1c1.1-3.1,3.8-5.3,6.9-5.4
				c1.2-0.1,2.4,0,3.7,0.1v3.5c-0.7-0.1-1.5-0.2-2.3-0.2c-5.4,0-8.3,3.9-8.4,9.7V410.7z"/>
			<path class="st0" d="M621.9,383.5h-6.1v-3.3h6.1v-6.5l3.7-1.6v8.1h6.9v3.3h-6.9V404c-0.1,2.8,1.4,4.3,4.2,4.3
				c1.1,0,2.2-0.1,3.2-0.4v3.2c-1.2,0.3-2.5,0.5-3.7,0.5c-7.7,0-7.3-4.9-7.3-9.1V383.5z"/>
			<path class="st0" d="M657.3,380.1h3.7v23.7c0,2.4,0.2,4.8,0.3,6.9h-3.8l-0.2-4.5l-0.1-0.1c-2.1,3.8-5.6,5.5-9.6,5.5
				c-10,0-10.8-8.8-10.8-12.4v-19.1h3.7v19.7c0,5.3,3,8.4,8,8.4c6,0,8.8-5.1,8.8-10.5V380.1z"/>
			<path class="st0" d="M672.7,422.4h-3.7V387c0.1-2.4-0.2-4.8-0.3-6.9h3.8l0.2,4.5l0.1,0.1c2.1-3.6,6.4-5.5,10.5-5.5
				c9.1,0,12.5,8.2,12.5,16.1c0,7.7-3.5,16.3-12.4,16.3c-4.4,0-8.2-2-10.7-5.7h-0.1V422.4z M683.1,408.3c7,0,8.8-7.7,8.8-13.4
				c0-5.8-2.4-12.3-9.3-12.3c-7.1,0-9.9,5.9-9.9,12.1C672.7,401.6,675.2,408.3,683.1,408.3z"/>
			<path class="st0" d="M719.5,410.7v-44h11c8.5-0.2,18,1.9,18,12.4c0,10.5-9.5,12.6-18,12.4h-7.1v19.1H719.5z M723.4,387.9h9.6
				c5.9,0,11.1-1.9,11.1-8.8c0-6.9-5.2-8.8-11.1-8.8h-9.6V387.9z"/>
			<path class="st0" d="M756.9,410.7h-3.7V387c0.1-2.4-0.2-4.8-0.3-6.9h3.8l0.2,4.5h0.1c1.1-3.1,3.8-5.3,6.9-5.4
				c1.2-0.1,2.4,0,3.7,0.1v3.5c-0.7-0.1-1.5-0.2-2.3-0.2c-5.4,0-8.3,3.9-8.4,9.7V410.7z"/>
			<path class="st0" d="M798.7,395.4c0,8-4.5,16.2-14.2,16.2s-14.2-8.2-14.2-16.2c0-8,4.5-16.2,14.2-16.2S798.7,387.4,798.7,395.4z
				 M784.4,382.6c-7.4,0-10.3,7.2-10.3,12.8c0,5.7,2.9,12.8,10.3,12.8s10.3-7.2,10.3-12.8C794.7,389.8,791.8,382.6,784.4,382.6z"/>
			<path class="st0" d="M826.4,380.1h3.8c-0.1,2.1-0.3,4.5-0.3,6.9v18.3c0,6.1,0.3,12.5-6.5,15.6c-2.4,1.2-4.1,1.4-6.9,1.4
				c-5.5,0-12.1-1.9-12.1-8.2h4c0.4,3.7,4.7,4.9,8.6,4.9c4.8,0,9.1-3.4,9.3-8.5v-5.7h-0.1c-1.8,3.6-6,5.7-9.9,5.7
				c-9.2,0-13.2-7-13.2-15.4c0-8.3,3.7-16,13-16c4.4,0,7.6,2.1,10,5.7l0.1-0.2L826.4,380.1z M816.5,382.6c-6.6,0-9.4,6.7-9.4,12.3
				c0,5.6,2.9,12.4,9.6,12.4c7,0,9.7-6.5,9.7-12.5C826.3,388.9,823,382.6,816.5,382.6z"/>
			<path class="st0" d="M841.6,410.7H838V387c0.1-2.4-0.2-4.8-0.3-6.9h3.8l0.2,4.5h0.1c1.1-3.1,3.8-5.3,6.9-5.4
				c1.2-0.1,2.4,0,3.7,0.1v3.5c-0.7-0.1-1.5-0.2-2.3-0.2c-5.4,0-8.3,3.9-8.4,9.7V410.7z"/>
			<path class="st0" d="M874.4,389.2c-0.4-5-2.9-6.6-7.2-6.6c-3.8,0-7,1.2-7.5,5.3h-3.9c0.9-6.3,5.6-8.6,11.4-8.6
				c6.8,0,11,3.1,10.8,10.1v14.5c-0.1,2.4,0.2,4.8,0.3,6.9h-3.8l-0.1-4.5h-0.1l-0.2,0.4c-1.3,2.6-5.4,5-9.6,5
				c-5.7,0-10.2-3.5-10.2-9.4c0-4.1,2.5-7.3,6.1-8.8c4.1-1.8,9.4-1.2,13.8-1.4V389.2z M865.3,408.3c8,0,9.5-6.6,9.1-13
				c-5.2,0.2-16-0.8-16,6.9C858.4,406.3,861.6,408.3,865.3,408.3z"/>
			<path class="st0" d="M890.1,384.7l0.1,0.1c2.1-3.8,5.6-5.5,9.6-5.5c4.8,0,8.6,2.7,9.9,6.7c2.3-3.6,5.8-6.7,10.5-6.7
				c10,0,10.8,8.8,10.8,12.4v19.1h-3.7V391c0-5.3-3-8.4-8-8.4c-6,0-8.8,5.1-8.8,10.5v17.6h-3.7V391c0-5.3-3-8.4-8-8.4
				c-6,0-8.8,5.1-8.8,10.5v17.6h-3.7V387c0-2.4-0.2-4.8-0.3-6.9h3.8L890.1,384.7z"/>
			<path class="st0" d="M949.9,379.2c5.8,0,10.7,2,11.1,8.5h-4c-0.4-3.8-3.8-5.1-7.5-5.1c-3.4,0-6.9,1.3-6.9,4.9
				c0,4.5,5.9,4.1,14.2,7c3.2,1.1,5.2,3.8,5.2,7.1c0,6.9-6.4,10-12.8,10c-5.3,0-11.4-2.5-11.5-9.3h4c0.3,4.6,4.3,5.9,8.5,5.9
				c3.9,0,8-1.8,8-6.1c0-4.4-4.8-5.1-9.7-6.2c-4.8-1.2-9.7-2.6-9.7-8.2C938.7,381.4,944.5,379.2,949.9,379.2z"/>
		</g>
	</g>
	<g>
		<g>
			<polygon class="st0" points="107.7,407.3 114.8,384.7 100.1,373.4 62,410.7 102.9,410.7 107.7,407.4 			"/>
			<polygon class="st0" points="154.9,373.4 140.2,384.7 147.3,407.4 152.1,410.7 193,410.7 			"/>
		</g>
		<g>
			<polygon class="st0" points="148.1,360.5 132.5,360.5 127.5,345.6 122.5,360.5 106.9,360.5 119.3,370.1 114.8,384.7 127.5,376 
				140.2,384.7 135.7,370.1 			"/>
			<polygon class="st0" points="127.6,393.9 127.5,393.9 102.9,410.7 152.1,410.7 			"/>
		</g>
	</g>
</g>
</svg>
