<?xml version="1.0" encoding="UTF-8" standalone="no"?>
<!-- Created with Inkscape (http://www.inkscape.org/) -->

<svg
   xmlns:dc="http://purl.org/dc/elements/1.1/"
   xmlns:cc="http://creativecommons.org/ns#"
   xmlns:rdf="http://www.w3.org/1999/02/22-rdf-syntax-ns#"
   xmlns:svg="http://www.w3.org/2000/svg"
   xmlns="http://www.w3.org/2000/svg"
   xmlns:sodipodi="http://sodipodi.sourceforge.net/DTD/sodipodi-0.dtd"
   xmlns:inkscape="http://www.inkscape.org/namespaces/inkscape"
   width="193.42375mm"
   height="165.85832mm"
   viewBox="0 0 685.35975 587.68697"
   id="svg3593"
   version="1.1"
   inkscape:version="0.91 r13725"
   sodipodi:docname="sd_emblem_white.svg">
  <defs
     id="defs3595" />
  <sodipodi:namedview
     id="base"
     pagecolor="#ffffff"
     bordercolor="#666666"
     borderopacity="1.0"
     inkscape:pageopacity="0.0"
     inkscape:pageshadow="2"
     inkscape:zoom="0.35"
     inkscape:cx="61.96558"
     inkscape:cy="73.926036"
     inkscape:document-units="px"
     inkscape:current-layer="layer1"
     showgrid="false"
     fit-margin-top="0"
     fit-margin-left="0"
     fit-margin-right="0"
     fit-margin-bottom="0"
     inkscape:window-width="1366"
     inkscape:window-height="719"
     inkscape:window-x="0"
     inkscape:window-y="27"
     inkscape:window-maximized="1" />
  <metadata
     id="metadata3598">
    <rdf:RDF>
      <cc:Work
         rdf:about="">
        <dc:format>image/svg+xml</dc:format>
        <dc:type
           rdf:resource="http://purl.org/dc/dcmitype/StillImage" />
        <dc:title></dc:title>
      </cc:Work>
    </rdf:RDF>
  </metadata>
  <g
     inkscape:label="Layer 1"
     inkscape:groupmode="layer"
     id="layer1"
     transform="translate(-20.177277,-18.60128)">
    <g
       transform="matrix(4.171702,0,0,-4.171702,-665.1575,1335.3092)"
       id="g3560">
      <path
         d="m 288.23686,290.88773 c -0.46621,-0.15653 -0.95156,-0.67454 -1.07994,-1.14976 l -0.26688,-0.99548 c -0.12725,-0.47635 -0.56869,-1.08557 -0.97972,-1.35697 l -0.17793,-0.11824 c -0.41103,-0.27026 -0.94255,-0.84345 -1.18016,-1.27363 l -1.43354,-2.57992 c -0.23873,-0.43017 -0.2804,-1.15426 -0.0935,-1.60921 l 0.67791,-1.63623 c 0.18694,-0.45608 0.71396,-0.98085 1.17003,-1.16665 l 4.24656,-1.74097 c 0.45608,-0.18694 1.05855,-0.009 1.34007,0.39526 l 0.93693,1.34345 c 0.28153,0.40428 0.24324,0.9876 -0.0856,1.29728 -0.32882,0.30856 -0.50449,0.95494 -0.39188,1.43354 l 1.38736,5.84676 c -1.24772,1.17904 -2.54613,2.30402 -3.89183,3.37045 l -0.17793,-0.0597"
         style="fill:#ffffff;fill-opacity:1;fill-rule:nonzero;stroke:none"
         id="path3497"
         inkscape:connector-curvature="0" />
      <path
         d="m 303.56322,272.98483 c -0.18243,-0.0923 -0.3581,-0.19482 -0.48986,-0.30405 l -0.134,-0.11149 c -0.37613,-0.31643 -1.0349,-0.77701 -1.46057,-1.02138 l -0.2286,-0.13175 c -0.42792,-0.24549 -0.84008,-0.65765 -0.92116,-0.9144 -0.0777,-0.25788 -0.1081,-0.76463 -0.0664,-1.12724 0.0417,-0.36261 0.071,-1.06192 0.0664,-1.55403 l -0.0113,-0.92904 c -0.007,-0.49211 -0.39864,-0.99886 -0.87386,-1.12724 l -1.97858,-0.53265 c -0.47634,-0.12837 -1.09683,-0.5608 -1.38173,-0.9617 l -2.24434,-3.16662 c -0.28491,-0.40202 -0.76238,-1.04953 -1.06079,-1.44029 l -1.22972,-1.61034 c -0.29954,-0.39076 -0.37274,-1.07543 -0.16441,-1.52137 l 0.59571,-1.268 c 0.20721,-0.44594 0.13514,-1.02026 -0.16216,-1.27701 -0.29729,-0.25901 -0.69255,-0.45382 -0.87611,-0.43468 -0.18468,0.0191 -0.53265,0.384 -0.77589,0.81192 -0.24324,0.4268 -0.75449,0.99098 -1.13625,1.25337 -0.38175,0.26125 -1.09795,0.47409 -1.59006,0.47184 l -1.22859,-0.007 c -0.49211,-0.003 -1.23647,-0.21959 -1.65313,-0.48085 l -2.93577,-1.84344 c -0.41553,-0.26239 -0.68355,-0.87161 -0.59458,-1.35584 l 0.20382,-1.10471 c 0.0901,-0.4831 0.46621,-1.14413 0.8367,-1.46732 l 0.0451,-0.0394 c 0.37161,-0.32432 1.04503,-0.54616 1.49547,-0.49436 0.4527,0.0507 0.93692,0.18806 1.07881,0.30405 0.14077,0.11599 0.30068,0.45382 0.35248,0.74999 0.0518,0.29617 0.48648,0.62724 0.9662,0.73535 l 0.13063,0.0293 c 0.47972,0.1081 0.9358,-0.0146 1.0135,-0.2714 0.0777,-0.259 -0.0901,-0.79841 -0.37387,-1.20155 l -0.19144,-0.27252 c -0.28378,-0.40202 -0.54616,-0.87837 -0.58445,-1.05967 -0.0383,-0.18018 0.28378,-0.51801 0.71846,-0.75112 l 1.61259,-0.86485 c 0.43468,-0.23311 0.90426,-0.71395 1.04615,-1.06868 0.14189,-0.35585 0.63851,-0.64076 1.10246,-0.63513 0.46509,0.006 1.12949,-0.0327 1.47746,-0.0867 0.34909,-0.0529 0.87611,-0.0811 1.17341,-0.0619 0.29729,0.0191 0.94143,0.0225 1.43354,0.007 l 2.00222,-0.0642 c 0.49098,-0.0158 1.29277,-0.08 1.78038,-0.14302 l 2.04727,-0.26576 c 0.48873,-0.0631 1.21169,-0.35473 1.60583,-0.64639 l 0.19031,-0.14076 c 0.39527,-0.29166 0.98535,-0.73873 1.30967,-0.99323 0.32432,-0.25338 0.97183,-0.59121 1.43691,-0.74999 l 1.8671,-0.63738 c 0.46508,-0.15991 1.00449,-0.6599 1.19818,-1.1126 l 0.43242,-1.01012 c 0.19369,-0.45157 0.73423,-0.94818 1.20156,-1.10133 l 0.68017,-0.22297 c 0.2759,2.30965 0.42229,4.66097 0.42229,7.04607 0,10.20819 -2.60131,19.8094 -7.17557,28.17865"
         style="fill:#ffffff;fill-opacity:1;fill-rule:nonzero;stroke:none"
         id="path3499"
         inkscape:connector-curvature="0" />
      <path
         d="m 205.56012,281.09507 25.00527,11.37709 c 0.15541,0.071 0.34572,0.14865 0.53716,0.21734 0.92003,0.32883 2.71392,0.89413 4.35129,0.9617 0.16891,0.007 0.34909,0.0101 0.52701,0.0101 2.31867,0 4.48643,-0.61711 6.3659,-1.68241 0.0146,0.20157 0.002,0.40314 -0.0698,0.57657 l -0.44707,1.05966 c -0.19144,0.45383 -0.0676,1.11485 0.27252,1.46845 l 0.43243,0.44819 c 0.34121,0.3536 0.9662,0.85022 1.38961,1.10134 l 2.20493,1.30967 c 0.42454,0.25112 1.15764,0.34459 1.62948,0.20833 l 6.56072,-1.89863 c 0.47296,-0.13738 1.26011,-0.28603 1.74997,-0.33332 l 2.90537,-0.27365 c 0.49098,-0.0462 1.2939,-0.0856 1.78601,-0.0867 l 4.57763,-0.0158 c 0.49211,-0.002 1.22971,-0.22635 1.63962,-0.49887 l 2.30177,-1.52926 c 0.4099,-0.27252 1.13849,-0.41103 1.61934,-0.30743 l 3.11482,0.66779 c 0.48085,0.10472 1.24999,0.0439 1.70944,-0.13288 l 1.9752,-0.759 c 0.45832,-0.1768 1.17453,-0.10473 1.59006,0.15878 l 1.99322,1.26687 c 0.41328,0.26351 1.15201,0.44369 1.64299,0.40202 -9.01113,5.6024 -19.64386,8.84222 -31.03446,8.84222 -18.80942,0 -35.55693,-8.8242 -46.33042,-22.55824"
         style="fill:#ffffff;fill-opacity:1;fill-rule:nonzero;stroke:none"
         id="path3501"
         inkscape:connector-curvature="0" />
      <path
         d="m 188.23492,224.32111 c -0.77589,1.04616 -1.30516,2.28938 -1.47971,3.65648 l -0.0124,0.11261 -0.94255,9.30167 -3.8254,1.11823 c 0.58558,-6.25892 1.99096,-12.28023 4.1103,-17.9592 0.18356,0.3367 0.36711,0.67116 0.54842,0.99886 0.54616,0.96845 1.07881,1.89186 1.60133,2.77135"
         style="fill:#ffffff;fill-opacity:1;fill-rule:nonzero;stroke:none"
         id="path3503"
         inkscape:connector-curvature="0" />
      <path
         d="m 312.84124,296.86512 c 4.27922,0 7.74764,3.46842 7.74764,7.74763 0,4.27922 -3.46842,7.74764 -7.74764,7.74764 -4.27922,0 -7.74876,-3.46842 -7.74876,-7.74764 0,-4.27921 3.46954,-7.74763 7.74876,-7.74763"
         style="fill:#ffffff;fill-opacity:1;fill-rule:nonzero;stroke:none"
         id="path3505"
         inkscape:connector-curvature="0" />
      <path
         d="m 324.34671,289.81454 c -2.3333,0 -4.22292,-1.88961 -4.22292,-4.22404 0,-2.33104 1.88962,-4.22178 4.22292,-4.22178 2.33217,0 4.22291,1.89074 4.22291,4.22178 0,2.33443 -1.89074,4.22404 -4.22291,4.22404"
         style="fill:#ffffff;fill-opacity:1;fill-rule:nonzero;stroke:none"
         id="path3507"
         inkscape:connector-curvature="0" />
      <path
         d="m 222.93938,199.24715 0.44931,1.38849 c 0.1982,0.61373 0.86486,0.96282 1.48309,0.77589 l 3.14297,-0.97972 c 0.61824,-0.18806 1.03265,-0.87048 1.03265,-1.51574 l 0,-0.39189 c 0,-0.64413 -0.40878,-1.34232 -1.02139,-1.5484 l -1.71056,-0.59571 c -0.61035,-0.20608 -1.52588,-0.10585 -2.05627,0.2241 -0.53265,0.32995 -1.12161,0.80854 -1.32318,1.06192 -0.20158,0.25563 -0.19595,0.96733 0.003,1.58106 z m -24.71699,21.38595 c 6.10464,-13.53134 17.17543,-24.33636 30.88807,-30.09867 l 5.28371,7.05959 c 0.32995,0.44143 1.05066,0.7849 1.60245,0.76012 l 5.42109,-0.22635 c 0.55067,-0.0248 1.20607,0.35923 1.45606,0.85022 l 3.12946,6.16094 c 0.24887,0.49324 0.90427,0.8795 1.45494,0.86035 l 4.73529,-0.16103 c 0.55067,-0.018 1.32093,-0.35247 1.71056,-0.74323 l 4.18688,-4.18913 c 0.38963,-0.39076 0.69256,-1.1599 0.67341,-1.71169 l -0.19932,-5.90194 c -0.018,-0.55067 -0.3277,-1.34345 -0.6858,-1.76349 l -4.76232,-5.55623 c 16.16418,0.32995 30.72479,7.1767 41.1672,18.02001 -0.13062,0.37162 -0.21058,0.79166 -0.18918,1.1126 l 0.56868,8.30506 c 0.0338,0.49099 0.21509,1.26575 0.40315,1.71957 l 0.76801,1.85358 c 0.18806,0.45495 0.31643,1.20944 0.2849,1.67565 -0.0315,0.46734 -0.018,1.24998 0.0315,1.73984 l 0.59346,5.81749 c 0.0496,0.48985 -0.21058,1.15764 -0.58107,1.48196 l -2.01123,1.77362 c -0.36936,0.32432 -0.85922,0.94818 -1.08895,1.38286 l -1.46169,2.77812 c -0.22973,0.43467 -0.53265,0.95832 -0.67454,1.16439 -0.14076,0.20496 -0.21734,0.77477 -0.17117,1.26462 l 0.0146,0.15541 c 0.0462,0.48986 0.2286,1.26687 0.40427,1.72632 l 1.30179,3.38734 c 0.1768,0.45833 -0.0597,0.96621 -0.52477,1.12611 l -0.71058,0.24212 c -0.46508,0.16103 -1.23984,0.37499 -1.72069,0.47747 l -0.67567,0.14527 c -0.48085,0.10135 -1.13737,0.48535 -1.46056,0.85134 -0.32207,0.36598 -0.97634,0.75899 -1.45606,0.87273 l -0.76688,0.1813 c -0.4786,0.11374 -1.25787,0.31531 -1.73196,0.4482 l -1.07994,0.30517 c -0.47297,0.13288 -1.22296,0.41891 -1.66439,0.63625 l -4.01796,1.96619 c -0.44256,0.21509 -0.74436,0.78603 -0.67229,1.26688 0.0732,0.47972 -0.0923,1.20719 -0.36486,1.61709 l -2.23983,3.35356 c -0.27252,0.4099 -0.6599,1.11147 -0.86035,1.56191 l -0.125,0.27928 c -0.20157,0.44931 -0.69481,0.96507 -0.9966,1.14525 -0.30068,0.18018 -0.68918,-0.0732 -0.68918,-0.56531 l 0,-0.006 c 0,-0.49098 0.0878,-1.29165 0.16441,-1.77813 l 0.089,-0.29279 c 0.0766,-0.48647 0.41666,-1.19255 0.7331,-1.57092 l 0.60134,-0.70607 c 0.31531,-0.37612 0.17793,-0.70494 -0.31418,-0.72859 l -0.0146,-0.001 c -0.49211,-0.0225 -1.12949,0.28265 -1.4189,0.6813 l -1.0394,1.43128 c -0.29054,0.39752 -0.59684,1.11936 -0.68355,1.60358 l -0.12838,0.72297 c -0.0867,0.48422 -0.49211,1.10358 -0.90201,1.3761 l -3.2004,2.12835 c -0.40878,0.27365 -0.81643,0.89188 -0.90315,1.37611 l -0.44256,2.46393 c -0.0878,0.48535 -0.32094,1.2511 -0.52026,1.70042 l -3.78598,8.58772 c -0.1982,0.45044 -0.71283,1.01462 -1.143,1.25336 l -8.77127,4.87605 c -0.0496,0.0282 -0.11487,0.0541 -0.17342,0.0811 0.003,-2.37271 0.004,-11.796 0.002,-50.65693 0.19369,-7.02242 -5.38506,-12.95364 -12.47505,-13.2408 -0.17905,-0.007 -0.35247,-0.0101 -0.52477,-0.0101 -1.93578,0 -3.87832,0.44593 -5.61928,1.29052 l -24.97938,12.01446 -4.6452,-5.74991 c -0.0428,-0.0541 -0.0878,-0.10924 -0.13513,-0.16104 -0.76801,-0.91102 -1.73083,-1.61709 -2.79839,-2.09231 l 0.53153,-1.20156"
         style="fill:#ffffff;fill-opacity:1;fill-rule:nonzero;stroke:none"
         id="path3509"
         inkscape:connector-curvature="0" />
      <path
         d="m 190.59862,188.29573 10e-4,-0.002 0,0 c -10e-4,10e-4 -10e-4,10e-4 -10e-4,0.002"
         style="fill:#ffffff;fill-opacity:1;fill-rule:nonzero;stroke:none"
         id="path3511"
         inkscape:connector-curvature="0" />
      <path
         d="m 190.59862,188.29573 c -0.007,0.005 -0.007,0.007 0,0 l 0,0"
         style="fill:#ffffff;fill-opacity:1;fill-rule:nonzero;stroke:none"
         id="path3513"
         inkscape:connector-curvature="0" />
      <path
         d="m 252.09999,315.62724 c 0,0 -28.56716,0.52814 -49.39681,-20.30264 l 0.0259,-0.027 c -6.48865,-6.38391 -11.74983,-14.01218 -15.39055,-22.49404 l 8.43344,3.78936 c 10.28364,18.29928 32.4849,33.15267 56.28861,33.15267 0.0113,0 0.0214,0 0.0327,0 35.59859,0 64.55988,-28.99733 64.55988,-64.59592 0,-3.24207 -0.24324,-6.44472 -0.70607,-9.55955 0.002,-0.002 0.005,-0.0101 0.008,-0.0113 -0.48873,-3.30851 -1.22745,-6.54157 -2.19704,-9.66652 -0.0101,-0.008 -0.0191,-0.018 -0.0293,-0.0248 -8.20259,-26.23836 -32.73152,-45.33156 -61.63651,-45.33156 -25.38252,0 -47.38783,14.72502 -57.92822,36.08057 -0.42117,-1.18467 -0.83896,-2.39974 -1.21958,-3.66324 -0.42342,-1.36935 -0.81305,-2.78149 -1.15539,-4.20827 4.74881,-7.84899 10.9852,-14.70024 18.31618,-20.16187 -0.22072,-0.0811 -0.43693,-0.16216 -0.66891,-0.2455 -0.68805,-0.22635 -1.4189,-0.46733 -2.19028,-0.71958 -0.77252,-0.20946 -1.58669,-0.46396 -2.43465,-0.66215 -1.38512,-0.34685 -2.86708,-0.61261 -4.39408,-0.77589 -0.34122,-0.036 -0.68243,-0.0721 -1.02702,-0.098 -1.88398,-0.1295 -3.82314,-0.0236 -5.54046,0.49437 l -0.64413,0.19819 c -0.20833,0.0754 -0.39639,0.17793 -0.59909,0.26239 -0.4223,0.15089 -0.76463,0.39977 -1.14188,0.61373 -0.20045,0.0946 -0.34459,0.25337 -0.51801,0.38062 l -0.25563,0.1982 -0.1295,0.098 -0.0327,0.0248 -0.0169,0.0124 c 0.15315,-0.15991 0.10811,-0.11149 0.0878,-0.0912 l -0.0822,0.0833 c -0.2072,0.21283 -0.46396,0.46283 -0.63175,0.64751 -0.10472,0.13851 -0.21508,0.27027 -0.33558,0.39977 -1.0912,1.41102 -1.77249,3.36707 -2.07091,5.53145 -0.13514,1.08782 -0.18356,2.21844 -0.17117,3.36482 0.0439,1.15201 0.11261,2.31303 0.27927,3.4763 0.29392,2.32542 0.81756,4.63282 1.43467,6.849 1.23759,4.44025 2.86933,8.51452 4.39633,11.94915 0.0912,0.20383 0.18131,0.39865 0.27252,0.59909 -1.47746,0.15541 -2.83892,0.7286 -3.96503,1.60246 -0.0586,-0.10923 -0.11487,-0.21171 -0.1723,-0.32207 -1.81416,-3.4549 -3.79837,-7.58435 -5.44699,-12.28023 -0.81981,-2.34794 -1.5653,-4.83664 -2.0788,-7.47624 -0.27365,-1.31305 -0.45382,-2.67677 -0.59346,-4.06188 -0.11036,-1.39413 -0.1464,-2.82091 -0.0619,-4.27697 0.20495,-2.89973 0.93918,-6.02018 2.74321,-8.7555 0.26125,-0.36937 0.53377,-0.73423 0.8108,-1.09345 0.23648,-0.29054 0.41778,-0.48874 0.62837,-0.73535 l 0.0766,-0.089 c 0.0552,-0.0574 -0.0946,0.0968 0.12838,-0.13288 l 0.027,-0.027 0.0552,-0.0518 0.22297,-0.2072 0.44707,-0.41103 c 0.30517,-0.26464 0.58895,-0.5608 0.92566,-0.77814 0.65202,-0.46171 1.29953,-0.9403 1.99885,-1.27589 0.34346,-0.17905 0.6858,-0.37499 1.03377,-0.53039 0.35247,-0.13964 0.70269,-0.27928 1.05066,-0.41779 2.8164,-1.05291 5.57311,-1.32768 8.06407,-1.33444 0.35585,0.001 0.69819,0.018 1.04616,0.0293 2.08668,0.0664 4.0326,0.28716 5.78933,0.60134 1.03151,0.1723 1.98983,0.4009 2.91662,0.59121 0.90427,0.23198 1.76912,0.44256 2.57091,0.66215 0.79391,0.23311 1.53602,0.45382 2.22407,0.65652 0.68918,0.22973 1.3243,0.44144 1.89749,0.63288 0.28716,0.0957 0.55743,0.18693 0.81306,0.27364 0.23535,0.0867 0.45607,0.16779 0.6599,0.24212 0.40765,0.14977 0.75336,0.27815 1.03489,0.38287 0.29842,0.10924 0.51576,0.22523 0.66103,0.27815 9.82531,-5.21051 21.01997,-8.13389 32.89367,-8.13389 0.002,0 0.006,0 0.008,0 l 0,0 c 0.95157,0 1.8975,-0.0113 2.84118,0.027 33.02317,1.32092 60.2649,25.46697 66.32,57.07125 0.82656,4.30174 1.268,8.7724 1.268,13.31062 0,38.83503 -31.69324,70.46296 -70.42918,70.46296"
         style="fill:#ffffff;fill-opacity:1;fill-rule:nonzero;stroke:none"
         id="path3515"
         inkscape:connector-curvature="0" />
      <path
         d="m 239.23419,229.67013 c 0,-0.0349 0,-0.0676 10e-4,-0.10135 0.036,-0.90764 -0.29954,-1.78263 -0.94706,-2.4673 -0.65652,-0.69369 -1.53714,-1.09796 -2.48307,-1.13625 -0.59233,-0.0191 -1.15426,0.0969 -1.67678,0.35698 -0.0315,0.0158 -0.0631,0.0315 -0.0946,0.045 l -30.49281,14.66646 32.34639,38.47805 c 0.34008,0.4054 0.31531,1.00224 -0.0574,1.37836 -0.37275,0.37612 -0.97071,0.40428 -1.37724,0.0664 l -42.83835,-35.50062 -20.75983,6.06749 c -0.08,0.0282 -0.16104,0.0518 -0.2455,0.0732 -0.73309,0.17793 -1.26687,0.82995 -1.29728,1.58331 -0.0304,0.73423 0.41329,1.40314 1.10472,1.66214 0.0811,0.0304 0.16103,0.0642 0.23761,0.1036 l 63.5081,28.89599 c 0.50337,0.17342 1.2207,0.37049 1.46957,0.38738 l 0.14302,0.002 c 1.85357,0 3.36707,-1.44367 3.45941,-3.28036 0.001,-1.73646 0,-50.77968 0,-51.2808 z m -49.55785,11.11471 1.2421,-12.27009 c 0.14977,-1.02476 1.07093,-2.96393 3.48418,-2.96393 0.96733,0 1.88849,0.45157 2.53825,1.24098 0.0158,0.0158 0.0304,0.0327 0.0439,0.0496 l 6.84562,8.47285 28.08744,-13.50882 c 0.0146,-0.007 0.0304,-0.0135 0.0473,-0.0203 1.14525,-0.5563 2.42113,-0.85021 3.69589,-0.85021 0.11599,0 0.2331,0.002 0.34797,0.007 2.26235,0.0912 4.36818,1.05178 5.93235,2.70491 1.5743,1.66439 2.39636,3.81752 2.31978,6.06974 0.002,51.27178 0,51.32021 -0.002,51.39228 -0.18468,4.57088 -3.91098,8.15078 -8.48411,8.15078 -0.11487,0 -0.23086,-0.002 -0.34797,-0.007 -1.11935,-0.0462 -2.61708,-0.55404 -3.04951,-0.70944 -0.0653,-0.0236 -0.13063,-0.0495 -0.19481,-0.0788 L 168.5316,259.50422 c -2.65762,-1.05404 -4.35917,-3.66211 -4.24431,-6.52919 0.1205,-2.92338 2.15087,-5.456 4.96277,-6.22063 0.0191,-0.006 0.0394,-0.0113 0.0597,-0.018 l 20.36683,-5.95149"
         style="fill:#ffffff;fill-opacity:1;fill-rule:nonzero;stroke:none"
         id="path3517"
         inkscape:connector-curvature="0" />
    </g>
  </g>
</svg>
